<svg width="24" height="24" viewBox="0 0 24 24" fill="none" xmlns="http://www.w3.org/2000/svg">
<path d="M20.8352 6.74C20.6352 6.87 20.3502 6.99 20.2302 7.125C20.1852 7.17 20.1602 7.22 20.1702 7.27V7.785L20.0202 8.29L19.8702 8.79L19.7052 9.34L19.3652 10.465L19.0352 11.575L18.7852 12.41C18.7852 12.54 18.7802 12.67 18.7702 12.795C18.7352 13.275 18.6352 13.735 18.4752 14.165C18.3802 14.43 18.2652 14.685 18.1252 14.925C18.0752 15.02 18.0152 15.115 17.9552 15.205C17.7552 15.52 17.5152 15.81 17.2502 16.065C17.0452 16.27 16.8202 16.46 16.5752 16.62C16.5752 16.62 16.5752 16.62 16.5702 16.62C16.5302 16.655 16.4852 16.685 16.4352 16.71C16.2802 16.815 16.1152 16.905 15.9452 16.985C15.8302 17.045 15.7152 17.095 15.5952 17.14C15.5702 17.155 15.5402 17.165 15.5152 17.175C15.2302 17.31 14.9002 17.4 14.5702 17.445C14.5502 17.45 14.5352 17.45 14.5152 17.455C14.3152 17.49 14.1202 17.52 13.9202 17.535C13.8302 17.545 13.7352 17.55 13.6452 17.55L13.2902 17.53L11.5802 17.44C11.5802 17.435 11.5752 17.44 11.5752 17.44L10.7152 17.395C10.6502 17.395 10.5802 17.395 10.5152 17.39C10.2452 17.38 9.9852 17.35 9.7252 17.295C9.7202 17.295 9.7202 17.295 9.7202 17.295C9.2452 17.205 8.7902 17.045 8.3652 16.83C8.1302 16.71 7.9002 16.575 7.6852 16.42C7.5952 16.355 7.5102 16.285 7.4252 16.21C7.1852 16.01 6.9702 15.795 6.7702 15.575C6.7402 15.545 6.7152 15.515 6.6902 15.485C6.6602 15.455 6.6302 15.42 6.6052 15.39C6.4152 15.15 6.2552 14.905 6.1252 14.645C6.0052 14.415 5.9102 14.17 5.8352 13.9C5.8052 13.805 5.7802 13.715 5.7602 13.615C5.7552 13.61 5.7502 13.6 5.7502 13.59C5.7002 13.385 5.6552 13.17 5.6302 12.955C5.6002 12.79 5.5852 12.625 5.5852 12.455C5.5752 12.39 5.5752 12.32 5.5752 12.255L6.5302 10.78L7.4652 9.34L7.8902 8.685L8.2752 8.095L8.4052 7.89V7.375C8.4152 7.26 8.4202 7.14 8.4152 7.03C8.4102 6.68 8.3402 6.34 8.2252 6.015C8.1152 5.67 7.9602 5.345 7.8002 5.045C7.6102 4.7 7.4102 4.39 7.2452 4.11C7.0002 3.7 6.8302 3.365 6.8752 3.13C7.2352 3.045 7.6152 3 8.0002 3H16.0002C18.0902 3 19.8902 4.3 20.6352 6.13C20.7152 6.325 20.7852 6.53 20.8352 6.74Z" fill="#304FFE"/>
<path d="M20.9996 8V8.135L20.3096 8.535L19.8696 8.79L19.3846 9.07L18.4146 9.635L17.4646 10.185L16.4946 10.745L16.1096 10.97C16.1096 11.21 16.0496 11.43 15.9396 11.63C15.7846 11.92 15.5246 12.16 15.1946 12.365C14.8596 12.57 14.4496 12.735 13.9896 12.855C13.9896 12.855 13.9896 12.85 13.9846 12.855C12.2046 13.315 9.77457 13.105 8.59457 12.225C8.26457 11.98 8.03457 11.68 7.93457 11.335C7.90457 11.22 7.88957 11.095 7.88957 10.97V7.375C7.89457 7.3 7.84457 7.225 7.75457 7.15C7.48457 6.935 6.84957 6.73 6.13957 6.525C5.58457 6.37 4.98957 6.215 4.48957 6.065C4.09457 5.945 3.75957 5.825 3.55957 5.71C3.64957 5.535 3.75457 5.36 3.86457 5.195C4.56457 4.17 5.63457 3.415 6.87457 3.13C7.23457 3.045 7.61457 3 7.99957 3H13.3996C16.0846 3.47 18.5596 4.565 20.6346 6.13C20.7146 6.325 20.7846 6.53 20.8346 6.74C20.9246 7.07 20.9796 7.41 20.9946 7.765C20.9996 7.84 20.9996 7.92 20.9996 8Z" fill="#4928F4"/>
<path d="M21 8.00003V10.205L20.89 10.545L20.515 11.71L20.125 12.91L19.92 13.55L19.73 14.145L19.545 14.71L19.365 15.27L19.27 15.565L19.145 15.955C19.145 16.335 19.135 16.67 19.11 16.955C19.105 16.985 19.1 17.015 19.1 17.045C19.07 17.31 19.03 17.535 18.965 17.725C18.96 17.755 18.95 17.785 18.94 17.81C18.81 18.17 18.615 18.4 18.325 18.55C18.255 18.59 18.175 18.62 18.09 18.65C17.825 18.74 17.49 18.785 17.08 18.81C16.78 18.83 16.435 18.835 16.045 18.835H15.7L15.105 18.81L15 18.805L13.915 18.76L12.815 18.715L9.18996 18.565L8.24996 18.525H8.11996C7.72996 18.52 7.39496 18.495 7.10496 18.455C6.68496 18.39 6.35996 18.28 6.11496 18.115C5.76496 17.89 5.55996 17.56 5.43996 17.1C5.40996 16.99 5.38496 16.875 5.36996 16.75C5.31996 16.46 5.29496 16.125 5.27996 15.75C5.27996 15.675 5.27996 15.6 5.27496 15.52C5.26996 15.515 5.27496 15.515 5.27496 15.515V15.225C5.26996 15.08 5.26996 14.93 5.26996 14.775L5.29496 13.97L5.30996 13.395L5.32996 12.725V12.63L5.36496 11.4L5.39996 10.17L5.43496 9.01503L5.46496 7.88003L5.47496 7.58003C5.47496 7.42503 4.94996 7.33503 4.36496 7.26003C3.89996 7.20003 3.38996 7.14503 3.08496 7.07503C3.10996 6.96003 3.13496 6.84503 3.16496 6.73503C3.25496 6.37503 3.38996 6.03503 3.55996 5.71003C3.64996 5.53503 3.75496 5.36003 3.86496 5.19503C4.94496 4.72003 6.06996 4.35003 7.24496 4.11003C8.27496 3.89503 9.34996 3.78003 10.46 3.78003C14.14 3.78003 17.54 5.02503 20.23 7.12503C20.49 7.32503 20.745 7.54003 20.995 7.76503C21 7.84003 21 7.92003 21 8.00003Z" fill="#6200EA"/>
<path d="M21 9.18505V11.4551L20.725 11.9851L20.2 13.0101L19.92 13.5501L19.665 14.0451L19.555 14.2601C19.555 14.4151 19.555 14.5651 19.545 14.7101C19.545 14.9251 19.535 15.1301 19.52 15.3201C19.5 15.5451 19.47 15.7501 19.44 15.9401C19.365 16.3351 19.26 16.6751 19.11 16.9551C19.09 16.9901 19.07 17.0251 19.05 17.0551C18.995 17.1451 18.93 17.2301 18.86 17.3101C18.77 17.4201 18.67 17.5151 18.555 17.5951C18.385 17.7251 18.185 17.8301 17.955 17.9101C17.67 18.0151 17.34 18.0851 16.95 18.1251C16.695 18.1501 16.415 18.1651 16.11 18.1651L15.9 18.1751L14.86 18.2351H14.855L13.75 18.3001L12.625 18.3651L11.075 18.4551L9.19 18.5651L8.915 18.5801C8.66 18.5801 8.42 18.5651 8.19 18.5351C8.165 18.5301 8.145 18.5251 8.12 18.5251C7.78 18.4701 7.47 18.3801 7.19 18.2551C6.85 18.1051 6.555 17.9051 6.305 17.6651C6.085 17.4501 5.895 17.2051 5.74 16.9301C5.705 16.8651 5.67 16.8051 5.64 16.7351C5.49 16.4401 5.37 16.1101 5.28 15.7501C5.265 15.6901 5.25 15.6251 5.24 15.5601C5.21 15.4451 5.185 15.3251 5.17 15.2001C5.115 14.8801 5.085 14.5401 5.07 14.1851V14.1801C5.065 14.0351 5.06 13.8951 5.06 13.7451L4.815 13.1601L4.78 13.0701L4.75 12.9951L4.375 12.1001L4.315 11.9551L3.955 11.0901L3.555 10.1251C3.555 10.1251 3.555 10.1251 3.55 10.1251L3.145 9.15005L3 8.79505V8.00005C3 7.68505 3.03 7.37505 3.085 7.07505C3.11 6.96005 3.135 6.84505 3.165 6.73505C3.59 6.49005 4.035 6.26505 4.49 6.06505C5.53 5.60005 6.645 5.25505 7.8 5.04505C8.66 4.89005 9.555 4.80505 10.46 4.80505C14.115 4.80505 17.43 6.13005 20.02 8.29005C20.12 8.37005 20.215 8.45005 20.31 8.53505C20.545 8.74005 20.775 8.95505 21 9.18505Z" fill="#673AB7"/>
<path d="M21 10.675V13.245L20.715 13.84L20.175 14.965L20.17 14.98C20.17 15.195 20.16 15.39 20.145 15.565C20.095 16.14 19.955 16.505 19.725 16.73C19.56 16.9 19.355 16.995 19.1 17.045C19.085 17.05 19.065 17.05 19.05 17.055C18.97 17.07 18.885 17.08 18.795 17.08C18.485 17.11 18.12 17.09 17.7 17.06C17.655 17.06 17.605 17.055 17.555 17.05C17.25 17.03 16.925 17.01 16.565 16.995C16.37 16.99 16.165 16.985 15.955 16.985H15.945L15.44 17.025H15.435L14.3 17.105L13.005 17.205L12.815 17.22L11.3 17.33L10.515 17.39L9.74 17.445C9.605 17.445 9.475 17.445 9.345 17.44C9.345 17.44 9.34 17.435 9.34 17.44C8.775 17.43 8.27 17.395 7.82 17.31C7.405 17.24 7.04 17.13 6.73 16.965C6.41 16.81 6.145 16.59 5.93 16.31C5.725 16.035 5.575 15.69 5.48 15.275C5.48 15.27 5.48 15.27 5.48 15.27C5.41 14.935 5.37 14.545 5.37 14.105L5.295 13.97L4.85 13.175L4.785 13.065L4.75 12.995L4.285 12.17L4.055 11.755L3.765 11.24L3.265 10.345L3 9.87496V8.03496C3.44 7.74496 3.895 7.48996 4.365 7.25996C4.935 6.96996 5.525 6.72496 6.14 6.52496C6.81 6.30496 7.51 6.12996 8.225 6.01496C8.95 5.89496 9.695 5.83496 10.46 5.83496C13.86 5.83496 16.98 7.04996 19.385 9.06996C19.495 9.15496 19.6 9.24996 19.705 9.33996C20.125 9.71496 20.525 10.12 20.89 10.545C20.93 10.59 20.97 10.63 21 10.675Z" fill="#8E24AA"/>
<path d="M21 12.355V15.97C20.88 15.9 20.715 15.815 20.51 15.725C20.4 15.67 20.275 15.615 20.145 15.565C19.955 15.48 19.75 15.4 19.52 15.32C19.47 15.3 19.42 15.285 19.365 15.27C19.275 15.235 19.18 15.205 19.085 15.175C18.79 15.085 18.465 15 18.125 14.925C17.995 14.9 17.86 14.875 17.725 14.855C17.29 14.78 16.825 14.735 16.34 14.73C16.3 14.725 16.255 14.725 16.215 14.725L14.93 14.735L13.18 14.745H13.175L9.43 14.775C8.24 14.775 7.51 15.06 7.07 15.175C7.07 15.175 7.065 15.175 7.065 15.18C6.6 15.3 6.455 15.225 6.415 14.41C6.405 14.185 6.4 13.895 6.4 13.54L6.12 13.325L5.63 12.955L5.33 12.725L5.27 12.68L4.44 12.05L4.315 11.955L4.055 11.755L3.575 11.395L3 10.955V9.25499C3.05 9.21499 3.095 9.17998 3.145 9.14998C3.87 8.64998 4.645 8.22499 5.465 7.87999C6.195 7.56999 6.965 7.32499 7.755 7.14999C7.97 7.10499 8.19 7.05999 8.415 7.02999C9.08 6.91499 9.765 6.85999 10.46 6.85999C13.465 6.85999 16.225 7.90499 18.415 9.63499C18.745 9.89499 19.065 10.17 19.365 10.465C19.775 10.855 20.16 11.27 20.515 11.71C20.585 11.8 20.655 11.89 20.725 11.985C20.82 12.105 20.91 12.23 21 12.355Z" fill="#C2185B"/>
<path d="M21 14.36V16C21 16.325 20.97 16.645 20.91 16.955C20.82 17.415 20.665 17.855 20.455 18.265C20.345 18.29 20.22 18.29 20.08 18.27C19.765 18.215 19.395 18.05 18.995 17.835C18.975 17.83 18.955 17.82 18.94 17.81C18.815 17.745 18.685 17.675 18.555 17.595C18.29 17.45 18.01 17.29 17.73 17.14C17.67 17.11 17.61 17.08 17.555 17.05C17.235 16.885 16.905 16.735 16.575 16.62C16.575 16.62 16.575 16.62 16.57 16.62C16.5 16.595 16.425 16.57 16.35 16.55C16.065 16.47 15.775 16.42 15.495 16.42L14.945 16.26L12.51 15.555C12.51 15.555 12.51 15.555 12.505 15.555L11.01 15.12H11.005L10.355 14.93C8.475 14.93 7.32 15.73 6.76 15.425C6.54 15.31 6.41 15.02 6.365 14.45C6.35 14.29 6.345 14.11 6.345 13.9L5.76 13.615L5.735 13.605H5.73L5.31 13.395L4.85 13.175L4.815 13.16L4.73 13.115L3.75 12.64L3 12.275V10.56C3.085 10.485 3.175 10.415 3.265 10.345C3.36 10.27 3.455 10.2 3.55 10.125C3.555 10.125 3.555 10.125 3.555 10.125C4.145 9.70001 4.77 9.32502 5.435 9.01502C6.21 8.64502 7.035 8.36001 7.89 8.17501C8.015 8.14501 8.145 8.11502 8.275 8.09502C8.985 7.96002 9.715 7.89001 10.46 7.89001C13.095 7.89001 15.515 8.74502 17.465 10.185C18.03 10.605 18.555 11.07 19.035 11.575C19.43 11.99 19.795 12.44 20.125 12.91C20.15 12.945 20.175 12.98 20.2 13.01C20.385 13.28 20.555 13.555 20.715 13.84C20.82 14.01 20.91 14.185 21 14.36Z" fill="#D81B60"/>
<path d="M20.91 16.955C20.82 17.415 20.665 17.855 20.455 18.265C20.36 18.45 20.255 18.625 20.14 18.795C20.07 18.9 19.995 19 19.92 19.095C19.74 19.025 19.475 18.925 19.15 18.815C19.15 18.815 19.15 18.815 19.15 18.81C18.905 18.725 18.625 18.635 18.325 18.55C18.24 18.525 18.155 18.5 18.065 18.475C17.71 18.38 17.34 18.295 16.98 18.245C16.68 18.195 16.385 18.165 16.11 18.165L15.88 18.1H15.875L14.665 17.75L13.92 17.535L13.09 17.295H13.085L12.815 17.22L9.55 16.28L8.61 16.01L7.91 15.845L6.77 15.575L6.63 15.54C6.63 15.54 6.63 15.54 6.625 15.54L5.48 15.275C5.48 15.27 5.48 15.27 5.48 15.27L5.275 15.225L5.17 15.2L4.335 15.005L4.24 14.98L3.53 14.395L3 13.95V11.91C3.185 11.73 3.375 11.56 3.575 11.395C3.635 11.34 3.7 11.29 3.765 11.24C3.825 11.19 3.89 11.14 3.955 11.09C4.41 10.745 4.89 10.435 5.4 10.17C6.05 9.82004 6.74 9.54004 7.465 9.34004C7.605 9.29504 7.745 9.25504 7.89 9.22504C8.71 9.02004 9.57 8.91504 10.46 8.91504C12.695 8.91504 14.775 9.59004 16.495 10.745C17.35 11.32 18.12 12.01 18.77 12.795C19.1 13.19 19.4 13.605 19.665 14.045C19.69 14.08 19.71 14.11 19.73 14.145C19.89 14.41 20.04 14.685 20.175 14.965C20.3 15.215 20.41 15.465 20.51 15.725C20.67 16.125 20.8 16.535 20.91 16.955Z" fill="#F50057"/>
<path d="M20.14 18.7949C20.07 18.8999 19.995 18.9999 19.92 19.0949C19.7 19.3699 19.46 19.6199 19.19 19.8399C18.955 20.0349 18.705 20.2099 18.44 20.3599C18.34 20.3349 18.24 20.3049 18.135 20.2649C17.805 20.1499 17.46 19.9599 17.14 19.7599C16.66 19.4549 16.245 19.1249 16.06 18.9749C15.99 18.9149 15.955 18.8849 15.955 18.8849L15.105 18.8099L15 18.7999L13.9 18.7049L12.76 18.6049L11.075 18.4549L8.405 18.2199L8.395 18.2149L7.455 17.7599L6.505 17.2999L5.74 16.9299L5.575 16.8499L5.37 16.7499L4.66 16.4049L3.715 15.9499L3.42 15.8049L3 15.6749V13.4399C3.235 13.1599 3.485 12.8949 3.75 12.6399C3.92 12.4799 4.1 12.3199 4.285 12.1699C4.315 12.1449 4.345 12.1199 4.375 12.0999C4.395 12.0749 4.42 12.0599 4.44 12.0499C4.735 11.8099 5.045 11.5949 5.365 11.3999C5.735 11.1649 6.125 10.9549 6.53 10.7799C6.965 10.5849 7.42 10.4199 7.89 10.2949C8.705 10.0649 9.57 9.94495 10.46 9.94495C12.5 9.94495 14.385 10.5649 15.94 11.6299C16.935 12.3099 17.795 13.1699 18.475 14.1649C18.7 14.4849 18.9 14.8249 19.085 15.1749C19.15 15.3049 19.215 15.4349 19.27 15.5649C19.33 15.6899 19.385 15.8149 19.44 15.9399C19.545 16.1999 19.64 16.4599 19.725 16.7299C19.885 17.2299 20.005 17.7399 20.08 18.2699C20.105 18.4449 20.125 18.6199 20.14 18.7949Z" fill="#FF1744"/>
<path d="M19.195 19.71C19.195 19.75 19.195 19.795 19.19 19.84C18.955 20.035 18.705 20.21 18.44 20.36C18.33 20.42 18.22 20.48 18.105 20.53C17.99 20.585 17.875 20.635 17.755 20.68C17.585 20.59 17.355 20.48 17.11 20.375C16.765 20.22 16.39 20.08 16.1 20.035C16.03 20.02 15.965 20.015 15.905 20.015L15.085 19.91H15.075L14.055 19.775L13.025 19.64L12.545 19.58L8.765 19.09C8.52 19.09 8.26 19.075 7.99 19.04C7.66 19.01 7.315 18.96 6.97 18.89C6.63 18.83 6.285 18.75 5.955 18.665C5.61 18.585 5.27 18.49 4.955 18.4C4.59 18.29 4.25 18.185 3.965 18.09C3.73 18.015 3.53 17.945 3.375 17.89C3.285 17.675 3.21 17.45 3.155 17.22C3.05 16.83 3 16.42 3 16V15.165C3.16 14.9 3.335 14.64 3.53 14.395C3.885 13.925 4.29 13.495 4.73 13.115C4.745 13.095 4.765 13.08 4.78 13.07L4.785 13.065C4.94 12.925 5.1 12.8 5.27 12.68C5.29 12.66 5.31 12.645 5.33 12.63C5.41 12.57 5.495 12.51 5.585 12.455C6.3 11.97 7.09 11.59 7.935 11.335C8.735 11.095 9.58 10.97 10.46 10.97C12.205 10.97 13.835 11.485 15.195 12.365C16.2 13.01 17.065 13.86 17.725 14.855C17.805 14.97 17.88 15.085 17.955 15.205C18.3 15.79 18.585 16.42 18.795 17.08C18.82 17.155 18.84 17.23 18.86 17.31C18.9 17.445 18.935 17.585 18.965 17.725C18.975 17.76 18.985 17.795 18.995 17.835C19.065 18.15 19.115 18.48 19.15 18.81C19.15 18.815 19.15 18.815 19.15 18.815C19.18 19.11 19.195 19.41 19.195 19.71Z" fill="#FF5722"/>
<path d="M18.1653 19.71C18.1653 19.885 18.1553 20.075 18.1353 20.265C18.1253 20.355 18.1153 20.445 18.1053 20.53C17.9903 20.585 17.8753 20.635 17.7553 20.68C17.5303 20.765 17.3003 20.835 17.0653 20.885C16.9053 20.92 16.7403 20.95 16.5753 20.965H16.5703C16.4153 20.87 16.2353 20.755 16.0503 20.625C15.7153 20.39 15.3653 20.125 15.0853 19.91C15.0803 19.905 15.0803 19.905 15.0753 19.9C14.7803 19.675 14.5703 19.505 14.5703 19.505L14.0403 19.525L13.0203 19.56L12.5453 19.58L10.6353 19.65L9.02027 19.71C8.91527 19.715 8.79027 19.715 8.63527 19.71H8.63027C8.42027 19.705 8.17027 19.69 7.89527 19.665C7.57527 19.64 7.22527 19.61 6.87027 19.575C6.52527 19.535 6.17527 19.495 5.84027 19.455C5.47027 19.415 5.12027 19.37 4.82027 19.33C4.58527 19.3 4.38027 19.275 4.21527 19.255C4.07527 19.095 3.95027 18.93 3.83027 18.75C3.65027 18.48 3.49527 18.195 3.37527 17.89C3.28527 17.675 3.21027 17.45 3.15527 17.22C3.30027 16.775 3.49027 16.355 3.71527 15.95C3.89527 15.62 4.10527 15.305 4.33527 15.005C4.56027 14.71 4.80527 14.435 5.07027 14.185V14.18C5.14527 14.105 5.22027 14.035 5.29527 13.97C5.43527 13.84 5.58027 13.72 5.73027 13.605H5.73527C5.74027 13.595 5.74527 13.595 5.75027 13.59C5.87027 13.495 5.99527 13.41 6.12027 13.325C6.86027 12.82 7.69527 12.445 8.59527 12.225C9.19027 12.08 9.81527 12 10.4603 12C11.7303 12 12.9303 12.305 13.9853 12.855H13.9903C14.8953 13.32 15.6953 13.96 16.3403 14.73C16.6953 15.14 17.0003 15.59 17.2503 16.065C17.4253 16.385 17.5753 16.72 17.7003 17.06C17.7103 17.09 17.7203 17.115 17.7303 17.14C17.8153 17.39 17.8903 17.65 17.9553 17.91C18.0003 18.095 18.0353 18.285 18.0653 18.475C18.0753 18.535 18.0853 18.59 18.0903 18.65C18.1403 18.995 18.1653 19.35 18.1653 19.71Z" fill="#FF6F00"/>
<path d="M17.1401 19.71V19.76C17.1401 19.93 17.1251 20.145 17.1101 20.375C17.0951 20.545 17.0801 20.72 17.0651 20.885C16.9051 20.92 16.7401 20.95 16.5751 20.965H16.5701C16.3801 20.99 16.1951 21 16.0001 21H15.1251L14.9351 20.945L13.9501 20.645L12.9501 20.345L10.6351 19.65L9.63508 19.35C9.63508 19.35 9.22008 19.515 8.63508 19.71H8.63008C8.40508 19.785 8.16008 19.865 7.90008 19.945C7.57508 20.04 7.23008 20.135 6.89008 20.21C6.54008 20.29 6.19508 20.35 5.88508 20.375C5.79008 20.385 5.69508 20.39 5.61008 20.39C5.33008 20.235 5.06008 20.05 4.81508 19.845C4.60008 19.665 4.40008 19.47 4.21508 19.255C4.07508 19.095 3.95008 18.93 3.83008 18.75C3.86508 18.525 3.90508 18.305 3.96508 18.09C4.11508 17.495 4.35008 16.925 4.66008 16.405C4.83008 16.11 5.02008 15.825 5.24008 15.56C5.24508 15.545 5.26008 15.53 5.27508 15.52C5.27008 15.515 5.27508 15.515 5.27508 15.515C5.34008 15.43 5.41008 15.35 5.48008 15.275C5.48008 15.27 5.48008 15.27 5.48008 15.27C5.68508 15.05 5.89508 14.84 6.12508 14.645C6.20508 14.58 6.28008 14.515 6.36508 14.45C6.38008 14.435 6.39508 14.425 6.41508 14.41C7.54008 13.55 8.94508 13.03 10.4601 13.03C12.1801 13.03 13.7451 13.675 14.9301 14.735C15.5001 15.25 15.9851 15.865 16.3501 16.55C16.3801 16.6 16.4101 16.655 16.4351 16.71C16.4801 16.8 16.5251 16.895 16.5651 16.995C16.7301 17.355 16.8601 17.735 16.9501 18.125C16.9601 18.165 16.9701 18.205 16.9801 18.245C17.0201 18.43 17.0551 18.62 17.0801 18.81C17.1201 19.105 17.1401 19.405 17.1401 19.71Z" fill="#FF9800"/>
<path d="M16.1097 19.7101C16.1097 19.8101 16.1047 19.9201 16.0997 20.0351C16.0897 20.2201 16.0747 20.4201 16.0497 20.6251C16.0397 20.7501 16.0197 20.8751 15.9997 21.0001H13.2597L12.7297 20.9151L10.6597 20.5851L10.3647 20.5401L9.68969 20.4301C9.39469 20.4301 8.75469 20.5601 8.07969 20.6851C7.72469 20.7501 7.36469 20.8201 7.03969 20.8651C6.99969 20.8701 6.95969 20.8751 6.92469 20.8801H6.91969C6.56969 20.8051 6.22969 20.6901 5.90969 20.5401C5.80969 20.4951 5.70969 20.4451 5.60969 20.3901C5.32969 20.2351 5.05969 20.0501 4.81469 19.8451C4.80969 19.7851 4.80469 19.7351 4.80469 19.7101C4.80469 19.5801 4.80969 19.4551 4.81969 19.3301C4.83969 19.0101 4.88469 18.7001 4.95469 18.4001C5.06469 17.9451 5.22469 17.5051 5.43969 17.1001C5.47969 17.0151 5.52469 16.9301 5.57469 16.8501C5.59469 16.8101 5.61969 16.7751 5.63969 16.7351C5.72969 16.5901 5.82969 16.4501 5.92969 16.3101C6.13969 16.0351 6.37469 15.7751 6.62469 15.5401C6.62969 15.5401 6.62969 15.5401 6.62969 15.5401C6.64969 15.5201 6.66969 15.5001 6.68969 15.4851C6.71469 15.4651 6.73469 15.4401 6.75969 15.4251C6.85969 15.3351 6.95969 15.2551 7.06469 15.1801C7.06469 15.1751 7.06969 15.1751 7.06969 15.1751C8.01469 14.4701 9.18469 14.0551 10.4597 14.0551C11.4497 14.0551 12.3697 14.3051 13.1747 14.7451H13.1797C13.8697 15.1251 14.4697 15.6401 14.9447 16.2601C15.1297 16.5001 15.2947 16.7551 15.4347 17.0251H15.4397C15.4647 17.0751 15.4897 17.1251 15.5147 17.1751C15.6647 17.4701 15.7847 17.7801 15.8747 18.1001H15.8797C15.8847 18.1251 15.8947 18.1501 15.8997 18.1751C15.9597 18.3901 16.0097 18.6101 16.0447 18.8351C16.0497 18.8801 16.0547 18.9301 16.0597 18.9751C16.0947 19.2151 16.1097 19.4601 16.1097 19.7101Z" fill="#FFC107"/>
<path d="M15.085 19.655C15.085 19.735 15.085 19.82 15.075 19.9V19.905C15.075 19.91 15.075 19.91 15.075 19.91C15.065 20.27 15.015 20.625 14.935 20.945C14.935 20.965 14.93 20.98 14.92 21H12.585L10.66 20.585L10.405 20.53L10.365 20.54L8.22996 20.98L8.13496 21H7.99996C7.67996 21 7.36496 20.97 7.05996 20.91C7.01496 20.9 6.96996 20.89 6.92496 20.88H6.91996C6.56996 20.805 6.22996 20.69 5.90996 20.54C5.89996 20.485 5.88996 20.43 5.88496 20.375C5.84996 20.16 5.83496 19.935 5.83496 19.71C5.83496 19.625 5.83496 19.54 5.83996 19.455C5.85496 19.185 5.89496 18.92 5.95496 18.665C5.99496 18.475 6.04996 18.29 6.11496 18.115C6.16996 17.96 6.23496 17.81 6.30496 17.665C6.36496 17.54 6.43496 17.42 6.50496 17.3C6.57496 17.185 6.64996 17.075 6.72996 16.965C6.92996 16.69 7.16496 16.435 7.42496 16.21C7.57496 16.08 7.73996 15.955 7.90996 15.845C8.63996 15.365 9.51496 15.085 10.46 15.085C10.645 15.085 10.825 15.095 11 15.12H11.01C11.545 15.18 12.045 15.33 12.505 15.555C12.51 15.555 12.51 15.555 12.51 15.555C13.235 15.91 13.85 16.445 14.3 17.105C14.375 17.215 14.45 17.335 14.515 17.455C14.57 17.55 14.62 17.65 14.665 17.75C14.735 17.905 14.8 18.07 14.855 18.235H14.86C14.915 18.42 14.965 18.605 15 18.8V18.805C15.055 19.08 15.085 19.365 15.085 19.655Z" fill="#FFD54F"/>
<path d="M14.0554 19.76V19.775C14.0554 20.07 14.0204 20.36 13.9504 20.645C13.9254 20.765 13.8904 20.885 13.8454 21H11.6054L10.4604 20.685L9.31535 21H8.00035C7.68035 21 7.36535 20.97 7.06035 20.91C7.05035 20.895 7.04535 20.88 7.04035 20.865C6.97035 20.65 6.91535 20.435 6.89035 20.21C6.87035 20.065 6.86035 19.915 6.86035 19.76C6.86035 19.7 6.86035 19.635 6.87035 19.575C6.87535 19.34 6.91035 19.11 6.97035 18.89C7.00035 18.74 7.04535 18.595 7.10535 18.455C7.12535 18.385 7.15535 18.32 7.19035 18.255C7.26535 18.085 7.35535 17.92 7.45535 17.76C7.56535 17.6 7.68535 17.45 7.82035 17.31C7.98035 17.13 8.16035 16.965 8.36535 16.83C8.71535 16.575 9.11535 16.385 9.55035 16.28C9.84035 16.2 10.1454 16.16 10.4604 16.16C11.4604 16.16 12.3554 16.56 13.0054 17.205C13.0304 17.23 13.0604 17.26 13.0854 17.295H13.0904C13.1604 17.37 13.2254 17.445 13.2904 17.53C13.4754 17.765 13.6304 18.02 13.7504 18.3C13.8104 18.43 13.8604 18.565 13.9004 18.705C13.9054 18.725 13.9104 18.74 13.9154 18.76C13.9854 19.005 14.0304 19.26 14.0404 19.525C14.0504 19.6 14.0554 19.68 14.0554 19.76Z" fill="#FFE082"/>
<path d="M13.0296 19.7599C13.0296 19.9649 13.0046 20.1599 12.9496 20.3449C12.8996 20.5449 12.8246 20.7349 12.7296 20.9149C12.7146 20.9449 12.6796 20.9999 12.6796 20.9999H8.23965C8.23465 20.9949 8.22965 20.9849 8.22965 20.9799C8.16965 20.8849 8.11965 20.7899 8.07965 20.6849C7.97965 20.4549 7.91965 20.2049 7.89965 19.9449C7.88965 19.8849 7.88965 19.8199 7.88965 19.7599C7.88965 19.7299 7.88965 19.6949 7.89465 19.6649C7.89965 19.4449 7.92965 19.2349 7.98965 19.0399C8.03965 18.8599 8.10465 18.6949 8.18965 18.5349C8.18965 18.5349 8.19465 18.5299 8.19465 18.5249C8.25465 18.4199 8.31965 18.3149 8.39465 18.2149C8.63965 17.8849 8.96465 17.6149 9.33965 17.4399C9.34465 17.4399 9.34465 17.4399 9.34465 17.4399C9.46465 17.3799 9.58965 17.3299 9.71965 17.2949C9.71965 17.2949 9.71965 17.2949 9.72465 17.2949C9.95465 17.2249 10.2046 17.1899 10.4596 17.1899C10.7546 17.1899 11.0396 17.2349 11.2996 17.3299C11.3946 17.3549 11.4846 17.3949 11.5746 17.4399C11.5746 17.4399 11.5746 17.4399 11.5796 17.4399C12.0096 17.6449 12.3746 17.9649 12.6246 18.3649C12.6746 18.4399 12.7196 18.5199 12.7596 18.6049C12.7796 18.6399 12.7996 18.6799 12.8146 18.7149C12.9296 18.9749 12.9996 19.2599 13.0196 19.5599C13.0246 19.5849 13.0246 19.6099 13.0246 19.6399C13.0296 19.6799 13.0296 19.7199 13.0296 19.7599Z" fill="#FFECB3"/>
<path d="M15 5.5H9C7.05 5.5 5.5 7.05 5.5 9V15C5.5 16.95 7.05 18.5 9 18.5H15C16.95 18.5 18.5 16.95 18.5 15V9C18.5 7.05 16.95 5.5 15 5.5Z" stroke="white" stroke-width="2" stroke-miterlimit="10" stroke-linecap="round" stroke-linejoin="round"/>
<path d="M15.5 8.5C15.7761 8.5 16 8.27614 16 8C16 7.72386 15.7761 7.5 15.5 7.5C15.2239 7.5 15 7.72386 15 8C15 8.27614 15.2239 8.5 15.5 8.5Z" fill="white"/>
<path d="M12 15C13.6569 15 15 13.6569 15 12C15 10.3431 13.6569 9 12 9C10.3431 9 9 10.3431 9 12C9 13.6569 10.3431 15 12 15Z" stroke="white" stroke-width="2" stroke-miterlimit="10" stroke-linecap="round" stroke-linejoin="round"/>
</svg>
