<svg width="24" height="24" viewBox="0 0 24 24" fill="none" xmlns="http://www.w3.org/2000/svg">
<path d="M20.9995 6.2145C20.338 6.5075 19.6265 6.703 18.876 6.7955C19.639 6.3425 20.226 5.62 20.5015 4.7665C19.7875 5.185 18.9965 5.4925 18.155 5.6545C17.483 4.942 16.5245 4.5 15.4625 4.5C13.4225 4.5 11.769 6.139 11.769 8.16C11.769 8.446 11.8025 8.7245 11.8655 8.995C8.79655 8.841 6.07455 7.382 4.25355 5.168C3.93355 5.709 3.75355 6.3425 3.75355 7.011C3.75355 8.2815 4.40405 9.4 5.39605 10.059C4.79055 10.0405 4.22055 9.872 3.72155 9.602C3.72155 9.613 3.72155 9.6295 3.72155 9.645C3.72155 11.4205 4.99505 12.899 6.68305 13.2355C6.37455 13.32 6.04855 13.367 5.71255 13.367C5.47405 13.367 5.24155 13.34 5.01655 13.2995C5.48655 14.7505 6.85005 15.811 8.46555 15.8425C7.20155 16.8225 5.60955 17.4095 3.87855 17.4095C3.57955 17.4095 3.28705 17.3925 2.99805 17.3575C4.63355 18.393 6.57555 19 8.66005 19C15.4525 19 19.1685 13.422 19.1685 8.583C19.1685 8.4245 19.1635 8.2665 19.156 8.1105C19.881 7.5985 20.506 6.9525 20.9995 6.2145Z" fill="#03A9F4"/>
</svg>
