<svg width="56" height="56" viewBox="0 0 56 56" fill="none" xmlns="http://www.w3.org/2000/svg">
<path d="M56 28C56 43.464 43.464 56 28 56C12.536 56 0 43.464 0 28C0 12.536 12.536 0 28 0C43.464 0 56 12.536 56 28Z" fill="#ABABAB"/>
<path d="M38 19C38 24.5228 33.5228 29 28 29C22.4772 29 18 24.5228 18 19C18 13.4772 22.4772 9 28 9C33.5228 9 38 13.4772 38 19Z" fill="white"/>
<path fill-rule="evenodd" clip-rule="evenodd" d="M11 47.9412C11.0317 38.5794 18.6307 31 27.9999 31C37.3691 31 44.9681 38.5794 44.9998 47.9412C40.6543 52.3016 34.6422 55 27.9999 55C21.3575 55 15.3454 52.3016 11 47.9412Z" fill="white"/>
</svg>
