<svg width="1328" height="853" viewBox="0 0 1328 853" fill="none" xmlns="http://www.w3.org/2000/svg">
<g opacity="0.15" filter="url(#filter0_i_267_285)">
<g clip-path="url(#clip0_267_285)">
<path d="M0 199.711L120.35 134.893L242.083 87.5926L362.433 124.381L482.783 105.111L603.133 134.893L724.867 182.193L845.217 152.411L965.567 182.193L1085.92 105.111L1207.65 199.711L1328 182.193V0H1207.65H1085.92H965.567H845.217H724.867H603.133H482.783H362.433H242.083H120.35H0V199.711Z" fill="#00CC8E"/>
<path d="M0 304.822L120.35 238.252L242.083 199.711L362.433 276.793H482.783L603.133 229.493L724.867 324.093L845.217 247.011L965.567 294.311L1085.92 171.681L1207.65 332.852L1328 285.552V178.689L1207.65 196.207L1085.92 101.607L965.567 178.689L845.217 148.907L724.867 178.689L603.133 131.389L482.783 101.607L362.433 120.878L242.083 84.0889L120.35 131.389L0 196.207V304.822Z" fill="#00BD8B"/>
<path d="M0 388.911L120.35 313.582L242.083 304.822L362.433 388.911L482.783 371.393L603.133 341.611L724.867 427.452L845.217 324.093L965.567 360.882L1085.92 294.311L1207.65 427.452L1328 388.911V282.048L1207.65 329.348L1085.92 168.178L965.567 290.807L845.217 243.507L724.867 320.589L603.133 225.989L482.783 273.289H362.433L242.083 196.207L120.35 234.748L0 301.319V388.911Z" fill="#00AE87"/>
<path d="M0 513.293L120.35 388.911L242.083 408.181L362.433 446.722H482.783L603.133 436.211L724.867 550.081L845.217 427.452L965.567 494.022L1085.92 399.422L1207.65 522.052L1328 465.993V385.407L1207.65 423.948L1085.92 290.807L965.567 357.378L845.217 320.589L724.867 423.948L603.133 338.107L482.783 367.889L362.433 385.407L242.083 301.318L120.35 310.078L0 385.407V513.293Z" fill="#00A081"/>
<path d="M0 767.311L120.35 655.193L242.083 720.011H362.433L482.783 635.922L603.133 758.552L724.867 786.581L845.217 644.681L965.567 786.581L1085.92 711.252L1207.65 739.281L1328 777.822V462.489L1207.65 518.548L1085.92 395.918L965.567 490.518L845.217 423.948L724.867 546.578L603.133 432.707L482.783 443.218H362.433L242.083 404.678L120.35 385.407L0 509.789V767.311Z" fill="#A1DDCB"/>
<path d="M0 947.752H120.35H242.083H362.433H482.783H603.133H724.867H845.217H965.567H1085.92H1207.65H1328V774.318L1207.65 735.778L1085.92 707.748L965.567 783.078L845.217 641.178L724.867 783.078L603.133 755.048L482.783 632.418L362.433 716.507H242.083L120.35 651.689L0 763.807V947.752Z" fill="#038373"/>
</g>
</g>
<defs>
<filter id="filter0_i_267_285" x="0" y="0" width="1328" height="950" filterUnits="userSpaceOnUse" color-interpolation-filters="sRGB">
<feFlood flood-opacity="0" result="BackgroundImageFix"/>
<feBlend mode="normal" in="SourceGraphic" in2="BackgroundImageFix" result="shape"/>
<feColorMatrix in="SourceAlpha" type="matrix" values="0 0 0 0 0 0 0 0 0 0 0 0 0 0 0 0 0 0 127 0" result="hardAlpha"/>
<feOffset dy="4"/>
<feGaussianBlur stdDeviation="2"/>
<feComposite in2="hardAlpha" operator="arithmetic" k2="-1" k3="1"/>
<feColorMatrix type="matrix" values="0 0 0 0 0 0 0 0 0 0 0 0 0 0 0 0 0 0 0.25 0"/>
<feBlend mode="normal" in2="shape" result="effect1_innerShadow_267_285"/>
</filter>
<clipPath id="clip0_267_285">
<rect width="1328" height="946" rx="16" fill="white"/>
</clipPath>
</defs>
</svg>
