<svg width="438" height="387" viewBox="0 0 438 387" fill="none" xmlns="http://www.w3.org/2000/svg">
<g clip-path="url(#clip0_267_170)">
<path d="M169.95 9.96562L171.672 7.30182C171.161 5.88983 170.571 4.50779 169.905 3.1623L168.791 4.06251L169.673 2.69865C168.833 1.04309 168.171 0 168.171 0C168.171 0 164.717 5.44737 163.563 11.2149L165.773 14.6332L163.327 12.6555C163.239 13.3273 163.195 14.004 163.192 14.6815C163.192 21.5122 165.422 27.0495 168.171 27.0495C170.921 27.0495 173.15 21.5122 173.15 14.6815C173.099 12.5083 172.715 10.3558 172.011 8.29908L169.95 9.96562Z" fill="#505050"/>
<path d="M182.14 15.8874L185.24 15.2226C185.877 13.8628 186.436 12.4681 186.915 11.0452L185.492 10.8936L187.079 10.5532C187.655 8.78786 187.924 7.58234 187.924 7.58234C187.924 7.58234 181.633 8.98987 176.742 12.2515L175.889 16.2326L175.556 13.1027C175.02 13.5161 174.51 13.9629 174.03 14.4403C169.204 19.2704 166.868 24.7633 168.812 26.7092C170.756 28.6551 176.245 26.3171 181.071 21.4871C182.57 19.9139 183.82 18.12 184.775 16.168L182.14 15.8874Z" fill="#505050"/>
<path d="M183.273 42.3187C176.084 42.7789 168.252 42.2919 159.919 42.3187V23.2261C167.261 24.37 175.091 24.2525 183.273 23.2261V42.3187Z" fill="#505050"/>
<path d="M234.701 57.2063L235.824 55.4691C235.491 54.5483 235.106 53.647 234.671 52.7695L233.945 53.3566L234.52 52.4672C233.972 51.3875 233.541 50.7073 233.541 50.7073C232.157 52.9699 231.143 55.4387 230.536 58.021L231.977 60.2502L230.381 58.9604C230.325 59.3986 230.295 59.8399 230.294 60.2817C230.294 64.7362 231.748 68.3474 233.541 68.3474C235.334 68.3474 236.788 64.7362 236.788 60.2817C236.754 58.8644 236.504 57.4607 236.045 56.1195L234.701 57.2063Z" fill="#505050"/>
<path d="M242.65 61.0682L244.672 60.6346C245.087 59.7478 245.452 58.8382 245.764 57.9103L244.836 57.8114L245.871 57.5895C246.246 56.4382 246.422 55.652 246.422 55.652C243.845 56.2727 241.383 57.3006 239.13 58.697L238.574 61.2932L238.357 59.2521C238.007 59.5217 237.675 59.8131 237.361 60.1244C234.214 63.2743 232.69 66.8565 233.958 68.1255C235.226 69.3945 238.806 67.8698 241.953 64.7199C242.931 63.694 243.745 62.5241 244.369 61.2511L242.65 61.0682Z" fill="#505050"/>
<path d="M243.389 78.3051C238.701 78.6052 233.593 78.2876 228.159 78.3051V65.854C233.211 66.5622 238.337 66.5622 243.389 65.854V78.3051Z" fill="#505050"/>
<path d="M240.494 115.205C236.355 115.47 231.844 115.19 227.046 115.205V104.211C231.507 104.836 236.033 104.836 240.494 104.211V115.205Z" fill="#505050"/>
<path d="M264.114 40.976H83.1514V46.0348H264.114V40.976Z" fill="#505050"/>
<path d="M264.114 76.8933H83.1514V81.9521H264.114V76.8933Z" fill="#505050"/>
<path d="M264.114 112.811H83.1514V117.869H264.114V112.811Z" fill="#505050"/>
<path d="M233.785 108.258C239.369 108.258 243.895 103.728 243.895 98.1401C243.895 92.5524 239.369 88.0226 233.785 88.0226C228.202 88.0226 223.676 92.5524 223.676 98.1401C223.676 103.728 228.202 108.258 233.785 108.258Z" fill="#505050"/>
<path d="M233.785 106.234C238.252 106.234 241.873 102.61 241.873 98.1402C241.873 93.67 238.252 90.0461 233.785 90.0461C229.318 90.0461 225.697 93.67 225.697 98.1402C225.697 102.61 229.318 106.234 233.785 106.234Z" fill="white"/>
<path d="M233.786 100.164C234.902 100.164 235.808 99.2576 235.808 98.1401C235.808 97.0225 234.902 96.1166 233.786 96.1166C232.669 96.1166 231.764 97.0225 231.764 98.1401C231.764 99.2576 232.669 100.164 233.786 100.164Z" fill="#505050"/>
<path d="M240.862 98.6461V97.6343H232.775V98.6461H240.862Z" fill="#505050"/>
<path d="M233.28 99.1519H234.291V91.0578H233.28V99.1519Z" fill="#505050"/>
<path d="M175.33 52.2149H168.641V78.7132H175.33V52.2149Z" fill="#505050"/>
<path d="M175.33 56.3988H168.641V59.467H175.33V56.3988Z" fill="#CCCCCC"/>
<path d="M175.33 69.7874H168.641V72.8556H175.33V69.7874Z" fill="#CCCCCC"/>
<path d="M165.018 52.2149H158.329V78.7132H165.018V52.2149Z" fill="#505050"/>
<path d="M165.018 56.3988H158.329V59.467H165.018V56.3988Z" fill="#CCCCCC"/>
<path d="M165.018 69.7874H158.329V72.8556H165.018V69.7874Z" fill="#CCCCCC"/>
<path d="M181.093 52.1054L175.099 55.0756L186.846 78.8228L192.841 75.8526L181.093 52.1054Z" fill="#505050"/>
<path d="M182.949 55.8549L176.954 58.8251L178.314 61.5748L184.309 58.6046L182.949 55.8549Z" fill="#CCCCCC"/>
<path d="M188.884 67.8535L182.89 70.8237L184.25 73.5733L190.245 70.6032L188.884 67.8535Z" fill="#CCCCCC"/>
<path d="M115.683 88.1322H108.994V114.63H115.683V88.1322Z" fill="#505050"/>
<path d="M115.683 92.316H108.994V95.3843H115.683V92.316Z" fill="#CCCCCC"/>
<path d="M115.683 105.705H108.994V108.773H115.683V105.705Z" fill="#CCCCCC"/>
<path d="M105.371 88.1322H98.6816V114.63H105.371V88.1322Z" fill="#505050"/>
<path d="M105.371 92.316H98.6816V95.3843H105.371V92.316Z" fill="#CCCCCC"/>
<path d="M105.371 105.705H98.6816V108.773H105.371V105.705Z" fill="#CCCCCC"/>
<path d="M121.447 88.0226L115.452 90.9928L127.2 114.74L133.195 111.77L121.447 88.0226Z" fill="#505050"/>
<path d="M123.301 91.7721L117.307 94.7423L118.667 97.492L124.662 94.5218L123.301 91.7721Z" fill="#CCCCCC"/>
<path d="M129.237 103.771L123.242 106.741L124.602 109.491L130.597 106.52L129.237 103.771Z" fill="#CCCCCC"/>
<path d="M178.363 88.1322H171.674V114.63H178.363V88.1322Z" fill="#505050"/>
<path d="M178.363 92.316H171.674V95.3843H178.363V92.316Z" fill="#CCCCCC"/>
<path d="M178.363 105.705H171.674V108.773H178.363V105.705Z" fill="#CCCCCC"/>
<path d="M168.05 88.1322H161.361V114.63H168.05V88.1322Z" fill="#505050"/>
<path d="M168.05 92.316H161.361V95.3843H168.05V92.316Z" fill="#CCCCCC"/>
<path d="M168.05 105.705H161.361V108.773H168.05V105.705Z" fill="#CCCCCC"/>
<path d="M184.126 88.0226L178.132 90.9928L189.88 114.74L195.874 111.77L184.126 88.0226Z" fill="#505050"/>
<path d="M185.981 91.7721L179.986 94.7423L181.347 97.492L187.341 94.5218L185.981 91.7721Z" fill="#CCCCCC"/>
<path d="M191.917 103.771L185.923 106.741L187.283 109.491L193.278 106.52L191.917 103.771Z" fill="#CCCCCC"/>
<path d="M249.96 16.2181H223.375V42.8242H249.96V16.2181Z" fill="#505050"/>
<path d="M244.644 21.5393H228.692V37.503H244.644V21.5393Z" fill="#CCCCCC"/>
<path d="M233.309 26.8978L236.692 32.7604L240.074 38.623H233.309H226.545L229.927 32.7604L233.309 26.8978Z" fill="#505050"/>
<path d="M239.186 28.0181L242.569 33.8807L245.951 39.7433H239.186H232.422L235.804 33.8807L239.186 28.0181Z" fill="#505050"/>
<path d="M241.565 26.3004C242.647 26.3004 243.524 25.4227 243.524 24.34C243.524 23.2572 242.647 22.3795 241.565 22.3795C240.483 22.3795 239.606 23.2572 239.606 24.34C239.606 25.4227 240.483 26.3004 241.565 26.3004Z" fill="#505050"/>
<path d="M115.502 16.2181H88.917V42.8242H115.502V16.2181Z" fill="#505050"/>
<path d="M110.186 21.5393H94.2344V37.503H110.186V21.5393Z" fill="#CCCCCC"/>
<path d="M98.8514 26.8978L102.233 32.7604L105.616 38.623H98.8514H92.0869L95.4689 32.7604L98.8514 26.8978Z" fill="#505050"/>
<path d="M104.728 28.0181L108.11 33.8807L111.492 39.7433H104.728H97.9639L101.346 33.8807L104.728 28.0181Z" fill="#505050"/>
<path d="M107.107 26.3004C108.189 26.3004 109.066 25.4227 109.066 24.34C109.066 23.2572 108.189 22.3795 107.107 22.3795C106.025 22.3795 105.148 23.2572 105.148 24.34C105.148 25.4227 106.025 26.3004 107.107 26.3004Z" fill="#505050"/>
<path d="M35.4915 197.646L37.2138 194.982C36.703 193.57 36.1131 192.188 35.4468 190.843L34.3331 191.743L35.215 190.379C34.3746 188.723 33.7133 187.68 33.7133 187.68C33.7133 187.68 30.2592 193.128 29.1052 198.895L31.3153 202.313L28.8686 200.336C28.7815 201.008 28.7366 201.684 28.7344 202.362C28.7344 209.192 30.9635 214.73 33.7133 214.73C36.4631 214.73 38.6922 209.192 38.6922 202.362C38.6407 200.189 38.2565 198.036 37.5532 195.979L35.4915 197.646Z" fill="#6C63FF"/>
<path d="M47.6821 203.568L50.782 202.903C51.4185 201.543 51.9779 200.148 52.4574 198.726L51.0338 198.574L52.621 198.234C53.1965 196.468 53.466 195.263 53.466 195.263C53.466 195.263 47.1747 196.67 42.2836 199.932L41.4312 203.913L41.0985 200.783C40.5621 201.196 40.0523 201.643 39.5721 202.121C34.7458 206.951 32.4096 212.444 34.354 214.39C36.2984 216.336 41.7871 213.997 46.6133 209.167C48.1123 207.594 49.3615 205.8 50.3174 203.848L47.6821 203.568Z" fill="#6C63FF"/>
<path d="M48.8147 229.999C41.6262 230.459 33.7935 229.972 25.4609 229.999V210.906C32.8034 212.05 40.6334 211.933 48.8147 210.906V229.999Z" fill="#BABAB5"/>
<path d="M345.75 235.992H248.697V361.955H345.75V235.992Z" fill="#505050"/>
<path d="M51.0538 242.568H45.999V361.955H51.0538V242.568Z" fill="#505050"/>
<path d="M345.75 227.392H0V237.509H345.75V227.392Z" fill="#505050"/>
<path d="M53.5813 237.509H43.4717V247.627H53.5813V237.509Z" fill="#505050"/>
<path d="M304.869 243.327L304.3 245.603H290.146L289.293 243.327H253.246V266.597H341.2V243.327H304.869Z" fill="#BABAB5"/>
<path d="M304.869 272.668L304.3 274.944H290.146L289.293 272.668H253.246V295.938H341.2V272.668H304.869Z" fill="#BABAB5"/>
<path d="M304.869 302.009L304.3 304.285H290.146L289.293 302.009H253.246V325.279H341.2V302.009H304.869Z" fill="#BABAB5"/>
<path d="M304.869 331.35L304.3 333.626H290.146L289.293 331.35H253.246V354.62H341.2V331.35H304.869Z" fill="#BABAB5"/>
<path d="M187.533 225.874H157.71L158.721 212.721H186.522L187.533 225.874Z" fill="#505050"/>
<path d="M189.556 224.356H156.194V227.392H189.556V224.356Z" fill="#505050"/>
<path d="M229.742 127.987H115.756C114.951 127.987 114.18 128.307 113.611 128.876C113.042 129.445 112.723 130.217 112.723 131.022V200.58H232.775V131.022C232.775 130.217 232.455 129.445 231.886 128.876C231.318 128.307 230.546 127.987 229.742 127.987Z" fill="#BABAB5"/>
<path d="M112.723 200.58V211.962C112.723 212.767 113.042 213.539 113.611 214.109C114.18 214.678 114.951 214.998 115.756 214.998H229.742C230.546 214.998 231.318 214.678 231.886 214.109C232.455 213.539 232.775 212.767 232.775 211.962V200.58H112.723Z" fill="#505050"/>
<path d="M226.961 134.31H118.788V195.016H226.961V134.31Z" fill="white"/>
<path d="M172.875 210.698C174.55 210.698 175.908 209.339 175.908 207.662C175.908 205.986 174.55 204.627 172.875 204.627C171.2 204.627 169.842 205.986 169.842 207.662C169.842 209.339 171.2 210.698 172.875 210.698Z" fill="#BABAB5"/>
<path d="M429.407 361.196C418.36 361.903 406.323 361.155 393.518 361.196V331.855C404.801 333.613 416.834 333.433 429.407 331.855V361.196Z" fill="#BABAB5"/>
<path d="M412.726 334.49H409.693L410.705 275.197H411.715L412.726 334.49Z" fill="#BABAB5"/>
<path d="M426.374 334.891H423.341L424.352 275.598H425.363L426.374 334.891Z" fill="#BABAB5"/>
<path d="M400.595 334.891H397.562L398.573 275.598H399.583L400.595 334.891Z" fill="#BABAB5"/>
<path d="M415.253 237.256L420.149 229.684C418.697 225.67 417.02 221.741 415.126 217.917L411.96 220.476L414.467 216.599C412.078 211.892 410.198 208.927 410.198 208.927C410.198 208.927 400.379 224.412 397.099 240.808L403.382 250.525L396.426 244.903C396.179 246.813 396.051 248.736 396.045 250.662C396.045 270.079 402.382 285.82 410.198 285.82C418.015 285.82 424.352 270.079 424.352 250.662C424.352 244.642 422.991 238.345 421.114 232.519L415.253 237.256Z" fill="#7CB57C"/>
<path d="M428.902 238.268L433.798 230.696C432.346 226.682 430.669 222.753 428.775 218.928L425.609 221.487L428.116 217.61C425.727 212.904 423.847 209.939 423.847 209.939C423.847 209.939 414.028 225.424 410.747 241.819L417.03 251.537L410.075 245.914C409.827 247.824 409.7 249.748 409.693 251.674C409.693 271.091 416.03 286.832 423.847 286.832C431.664 286.832 438 271.091 438 251.674C438 245.654 436.64 239.356 434.762 233.531L428.902 238.268Z" fill="#8DDA8D"/>
<path d="M403.121 238.268L408.017 230.696C406.565 226.682 404.888 222.753 402.994 218.928L399.829 221.487L402.335 217.61C399.946 212.904 398.067 209.939 398.067 209.939C398.067 209.939 388.248 225.424 384.967 241.819L391.25 251.537L384.295 245.914C384.047 247.824 383.919 249.748 383.913 251.674C383.913 271.091 390.25 286.832 398.067 286.832C405.883 286.832 412.22 271.091 412.22 251.674C412.22 245.654 410.859 239.356 408.982 233.531L403.121 238.268Z" fill="#228B22"/>
<path d="M183.034 151.446H153.867V153.122H183.034V151.446Z" fill="#BABAB5"/>
<path d="M198.907 157.558H153.867V159.234H198.907V157.558Z" fill="#6C63FF"/>
<path d="M190.574 163.316H153.867V164.992H190.574V163.316Z" fill="#6C63FF"/>
<path d="M175.296 169.053H153.867V170.729H175.296V169.053Z" fill="#BABAB5"/>
<path d="M186.209 174.79H153.867V176.466H186.209V174.79Z" fill="#BABAB5"/>
<path d="M144.145 150.85H140.573V154.424H144.145V150.85Z" fill="#BABAB5"/>
<path d="M144.145 156.609H140.573V160.183H144.145V156.609Z" fill="#6C63FF"/>
<path d="M144.145 162.367H140.573V165.941H144.145V162.367Z" fill="#6C63FF"/>
<path d="M144.145 168.126H140.573V171.7H144.145V168.126Z" fill="#BABAB5"/>
<path d="M144.145 173.884H140.573V177.458H144.145V173.884Z" fill="#BABAB5"/>
<path d="M221.949 148.274H206.644C205.599 142.231 205.599 136.053 206.644 130.01H221.949C220.225 135.976 220.225 142.308 221.949 148.274Z" fill="#FAE18B"/>
<path d="M110.581 184.878L104.284 183.342C101.881 183.345 99.5076 182.814 97.3353 181.786C95.1629 180.758 93.2461 179.26 91.7234 177.4C90.2007 175.539 89.1102 173.364 88.5309 171.03C87.9516 168.696 87.898 166.263 88.3738 163.906V163.906C88.3668 158.282 90.5924 152.885 94.5611 148.903C98.5298 144.922 103.916 142.681 109.536 142.674H109.536C115.156 142.667 120.548 144.894 124.527 148.866C128.505 152.837 130.744 158.228 130.751 163.852V163.852C134.322 176.286 123.14 187.942 110.581 184.878Z" fill="#2F2E41"/>
<path d="M117.459 187.095C126.057 187.095 133.028 180.119 133.028 171.514C133.028 162.909 126.057 155.933 117.459 155.933C108.86 155.933 101.89 162.909 101.89 171.514C101.89 180.119 108.86 187.095 117.459 187.095Z" fill="#FFB8B8"/>
<path d="M107.305 179.643C107.305 179.643 102.567 195.902 99.8594 197.257C97.1518 198.612 121.521 200.644 121.521 200.644C121.521 200.644 120.844 185.063 122.198 183.708C123.551 182.353 107.305 179.643 107.305 179.643Z" fill="#FFB8B8"/>
<path d="M131.674 279.905C131.674 279.905 162.136 277.195 166.197 287.357C170.259 297.519 163.489 357.811 163.489 357.811H150.628V308.358C150.628 308.358 95.7891 292.758 95.7891 287.338C95.7891 281.919 131.674 279.905 131.674 279.905Z" fill="#2F2E41"/>
<path d="M161.459 355.101L168.228 357.811C168.228 357.811 176.351 357.134 172.966 363.231C171.997 365.001 170.642 366.529 169.001 367.702C167.361 368.875 165.476 369.662 163.489 370.005C163.489 370.005 150.628 374.747 149.951 370.005C149.274 365.263 153.336 355.779 153.336 355.779L161.459 355.101Z" fill="#2F2E41"/>
<path d="M114.751 279.905C114.751 279.905 145.213 277.195 149.274 287.357C153.335 297.519 146.566 357.811 146.566 357.811H133.705V308.358C133.705 308.358 94.7779 299.334 94.7779 293.915C94.7779 291.368 92.1254 278.429 96.7998 275.703C102.076 272.626 114.751 279.905 114.751 279.905Z" fill="#2F2E41"/>
<path d="M144.536 355.101L151.305 357.811C151.305 357.811 159.428 357.134 156.043 363.231C155.075 365.001 153.719 366.529 152.078 367.702C150.438 368.875 148.554 369.662 146.567 370.005C146.567 370.005 133.705 374.747 133.028 370.005C132.351 365.263 136.413 355.779 136.413 355.779L144.536 355.101Z" fill="#2F2E41"/>
<path d="M100.536 195.225L120.879 197.438C124.019 197.779 126.97 199.105 129.312 201.225C131.654 203.346 133.266 206.152 133.919 209.245L141.828 246.71C141.828 246.71 144.536 283.97 139.12 286.002C133.705 288.034 126.259 277.873 116.105 279.228C105.952 280.583 92.7517 283.631 92.7517 283.631C92.7517 283.631 90.6555 216.938 90.3825 211.483C89.8367 200.578 100.536 195.225 100.536 195.225Z" fill="#575A89"/>
<path d="M148.723 281.841L157.074 286.763C157.074 286.763 172.057 284.612 171.589 289.882C171.121 295.152 154.767 294.134 154.767 294.134L144.702 287.927L148.723 281.841Z" fill="#FFB8B8"/>
<path d="M87.2396 158.842C92.7939 158.842 97.2966 154.335 97.2966 148.777C97.2966 143.218 92.7939 138.712 87.2396 138.712C81.6853 138.712 77.1826 143.218 77.1826 148.777C77.1826 154.335 81.6853 158.842 87.2396 158.842Z" fill="#2F2E41"/>
<path d="M96.5185 143.366C96.5173 141.877 96.186 140.407 95.5483 139.062C94.9107 137.717 93.9827 136.53 92.8313 135.588C91.6799 134.645 90.3337 133.97 88.89 133.611C87.4462 133.252 85.9408 133.218 84.4824 133.512C85.7692 132.903 87.1705 132.575 88.5934 132.549C90.0164 132.523 91.4287 132.8 92.7369 133.361C94.0451 133.922 95.2193 134.754 96.1818 135.804C97.1444 136.853 97.8734 138.095 98.3205 139.447C98.7677 140.799 98.9228 142.231 98.7757 143.648C98.6285 145.064 98.1825 146.434 97.467 147.665C96.7516 148.896 95.783 149.961 94.6254 150.79C93.4678 151.619 92.1476 152.192 90.7521 152.472C92.4777 151.658 93.9363 150.37 94.9574 148.757C95.9785 147.145 96.52 145.275 96.5185 143.366V143.366Z" fill="#2F2E41"/>
<path d="M105.146 149.074L118.705 146.576L129.131 153.116C131.695 154.724 133.744 157.034 135.035 159.772C136.327 162.51 136.806 165.561 136.417 168.564L125.975 165.915L123.636 160.047L120.851 164.615L106.29 183.369L98.1138 178.159L90.8252 166.728L105.146 149.074Z" fill="#2F2E41"/>
<path d="M116.312 200.987L123.081 197.6C123.081 197.6 137.296 199.632 140.004 209.117C142.711 218.601 154.896 284.313 154.896 284.313L143.388 289.733L127.142 249.763L116.312 200.987Z" fill="#575A89"/>
<path opacity="0.2" d="M122.074 227.645L128.849 253.962L140.863 283.52L140.447 284.543L126.118 254.456L122.074 227.645Z" fill="black"/>
<path d="M71.524 372.782L69.1348 371.958L92.2796 303.158L95.6254 304.311L71.524 372.782Z" fill="#BABAB5"/>
<path d="M159.987 372.782L162.376 371.958L139.231 303.158L135.886 304.311L159.987 372.782Z" fill="#BABAB5"/>
<path d="M111.08 386.991L113.608 387L114.393 306.574L110.854 306.561L111.08 386.991Z" fill="#BABAB5"/>
<path d="M65.6738 262.731L72.6065 290.773C73.5773 294.7 75.5987 298.288 78.4535 301.152C81.3083 304.016 84.8886 306.047 88.8101 307.029H88.8102C108.145 311.866 128.387 311.735 147.657 306.649L158.008 303.917C164.022 302.33 168.545 297.16 168.973 290.95C169.146 288.755 168.749 286.552 167.82 284.556C167.779 284.47 167.739 284.384 167.698 284.3C166.348 281.525 164.265 279.172 161.676 277.496C159.086 275.821 156.088 274.885 153.005 274.792L142.04 274.438L102.107 256.732C102.107 256.732 88.373 249.751 77.0825 248.969C69.6261 248.453 63.8786 255.47 65.6738 262.731Z" fill="#6C63FF"/>
<path d="M309.102 174.528H269.675V228.151H309.102V174.528Z" fill="#505050"/>
<path d="M304.553 180.715H274.224V221.963H304.553V180.715Z" fill="white"/>
<path d="M300.855 191.509H286.16V193.185H300.855V191.509Z" fill="#BABAB5"/>
<path d="M281.493 190.582H277.922V194.156H281.493V190.582Z" fill="#BABAB5"/>
<path d="M300.855 198.591H286.16V200.267H300.855V198.591Z" fill="#BABAB5"/>
<path d="M281.493 197.664H277.922V201.238H281.493V197.664Z" fill="#BABAB5"/>
<path d="M300.855 205.674H286.16V207.349H300.855V205.674Z" fill="#BABAB5"/>
<path d="M281.493 204.746H277.922V208.32H281.493V204.746Z" fill="#BABAB5"/>
<path d="M290.905 177.563C290.905 176.725 290.226 176.045 289.389 176.045C288.551 176.045 287.872 176.725 287.872 177.563C287.872 178.401 288.551 179.08 289.389 179.08C290.226 179.08 290.905 178.401 290.905 177.563Z" fill="#BABAB5"/>
</g>
<defs>
<clipPath id="clip0_267_170">
<rect width="438" height="387" fill="white"/>
</clipPath>
</defs>
</svg>
