<svg width="249" height="269" viewBox="0 0 249 269" fill="none" xmlns="http://www.w3.org/2000/svg">
<path d="M174.503 117.79C189.467 117.79 201.598 105.667 201.598 90.7128C201.598 75.7587 189.467 63.636 174.503 63.636C159.539 63.636 147.408 75.7587 147.408 90.7128C147.408 105.667 159.539 117.79 174.503 117.79Z" fill="#FF6584"/>
<path d="M248.826 110.901C248.885 110.89 248.93 110.848 249 110.859C248.969 110.742 248.93 110.627 248.881 110.516C248.795 110.634 248.707 110.754 248.63 110.859L248.826 110.901Z" fill="white"/>
<path d="M67.0968 154.798C67.255 160.706 68.2452 166.562 70.0381 172.193C70.0791 172.324 70.1221 172.452 70.165 172.583H81.1419C81.1302 172.466 81.1185 172.335 81.1067 172.193C80.3748 163.784 76.1551 112.607 81.2004 103.855C80.7593 104.565 66.2458 128.08 67.0968 154.798Z" fill="#E6E6E6"/>
<path d="M67.9204 172.193C68.0121 172.324 68.1078 172.454 68.2053 172.583H76.44C76.3775 172.472 76.3053 172.341 76.2214 172.193C74.861 169.739 70.8345 162.403 67.0968 154.798C63.08 146.626 59.395 138.143 59.7053 135.073C59.6096 135.765 56.8303 156.874 67.9204 172.193Z" fill="#E6E6E6"/>
<path d="M153.49 173.6C153.352 178.75 152.488 183.855 150.925 188.764C150.89 188.878 150.852 188.991 150.815 189.104H141.245C141.255 189.002 141.265 188.888 141.276 188.764C141.914 181.434 145.592 136.817 141.194 129.187C141.578 129.806 154.232 150.306 153.49 173.6Z" fill="#E6E6E6"/>
<path d="M152.771 188.764C152.692 188.878 152.608 188.992 152.523 189.104H145.344C145.398 189.008 145.461 188.894 145.535 188.764C146.721 186.625 150.231 180.23 153.49 173.6C156.992 166.475 160.204 159.079 159.934 156.403C160.017 157.006 162.44 175.409 152.771 188.764Z" fill="#E6E6E6"/>
<path d="M44.0703 21.9777L48.5331 18.4107C45.0662 18.0285 43.6417 19.918 43.0587 21.4136C40.3502 20.2897 37.4016 21.7627 37.4016 21.7627L46.3308 25.0021C45.8804 23.7998 45.0962 22.7506 44.0703 21.9777Z" fill="#3F3D56"/>
<path d="M178.486 3.61697L182.949 0.0499546C179.482 -0.332291 178.057 1.55726 177.474 3.05285C174.766 1.92891 171.817 3.40188 171.817 3.40188L180.747 6.64136C180.296 5.43897 179.512 4.38984 178.486 3.61697Z" fill="#3F3D56"/>
<path d="M244.148 144.676C244.148 147.631 244.045 150.563 243.839 153.47C242.25 176.407 234.291 198.446 220.858 217.112C219.103 219.56 217.26 221.94 215.329 224.251C210.325 230.248 204.77 235.762 198.736 240.722L172.286 225.212L156.472 188.326C156.472 188.326 180.067 140.584 244.106 141.449C244.133 142.521 244.147 143.596 244.148 144.676Z" fill="#3F3D56"/>
<path d="M243.839 153.47C242.622 170.61 237.864 187.312 229.863 202.521C221.863 217.731 210.795 231.119 197.358 241.839L172.786 227.431L158.761 194.718C158.761 194.718 181.487 148.737 243.839 153.47Z" fill="#6C63FF"/>
<path d="M220.858 217.112C219.103 219.56 217.26 221.94 215.329 224.251C202.39 239.786 185.857 251.936 167.161 259.649C163.375 261.209 159.501 262.584 155.537 263.775C126.916 271.382 96.5941 269.458 69.1657 258.295C42.0392 246.196 20.1183 224.828 7.34009 198.028C5.62282 194.421 4.07854 190.721 2.70726 186.931C26.6231 169.422 73.7489 144.351 125.111 168.713C139.318 175.452 152.004 181.594 163.169 187.14C191.5 201.175 210.356 211.292 220.858 217.112Z" fill="#3F3D56"/>
<path d="M215.329 224.251C201.953 240.27 184.762 252.67 165.335 260.311C145.909 267.952 124.872 270.588 104.159 267.977C83.4462 265.365 63.7232 257.59 46.8046 245.367C29.8859 233.144 16.3149 216.865 7.34009 198.028C27.3139 182.244 73.3826 153.878 123.939 177.854C136.941 184.021 148.548 189.642 158.761 194.718C188.535 209.465 206.876 219.488 215.329 224.251Z" fill="#6C63FF"/>
<path d="M180.075 253.429C175.892 255.746 171.58 257.823 167.161 259.649C152.121 265.843 136.008 269.02 119.741 269C100.492 268.992 81.5073 264.525 64.2771 255.95C47.0469 247.374 32.0407 234.923 20.437 219.575C50.1496 216.444 132.281 212.223 180.075 253.429Z" fill="#3F3D56"/>
<path d="M167.161 259.649C143.839 269.232 118.156 271.515 93.508 266.195C68.8599 260.876 46.4084 248.204 29.1228 229.857C39.9301 228.27 124.779 217.375 167.161 259.649Z" fill="#6C63FF"/>
<path d="M223.281 75.7329V75.7367C134.449 10.1003 32.6716 56.2987 31.8855 56.6533V56.6495C43.4214 45.1226 57.1194 35.9832 72.1951 29.7546C87.2708 23.526 103.428 20.3306 119.741 20.3514C162.929 20.3514 200.976 42.3446 223.281 75.7329Z" fill="#E6E6E6"/>
<path d="M39.0105 147.086C54.0381 144.378 61.7388 117.343 56.2104 86.7009C50.6821 56.0589 34.0182 33.4136 18.9906 36.1213C3.96303 38.8289 -3.73764 65.8641 1.7907 96.5061C7.31905 127.148 23.9829 149.793 39.0105 147.086Z" fill="#3F3D56"/>
<path d="M42.8725 182.872C41.9816 115.567 19.4473 52.405 19.2199 51.7754L17.1648 52.5162C17.3911 53.1428 39.8017 115.974 40.688 182.901L42.8725 182.872Z" fill="#6C63FF"/>
<path d="M2.89232 83.9894L2.21996 86.0671L29.1979 94.7859L29.8703 92.7083L2.89232 83.9894Z" fill="#6C63FF"/>
<path d="M53.6401 81.649L31.4121 99.2413L32.7687 100.953L54.9967 83.3608L53.6401 81.649Z" fill="#6C63FF"/>
<path d="M111.269 137.383C127.792 137.383 141.187 110.07 141.187 76.3776C141.187 42.6855 127.792 15.3727 111.269 15.3727C94.7455 15.3727 81.3506 42.6855 81.3506 76.3776C81.3506 110.07 94.7455 137.383 111.269 137.383Z" fill="#3F3D56"/>
<path d="M108.506 176.233C120.489 104.387 108.627 32.8012 108.505 32.0871L106.175 32.4817C106.295 33.1923 118.089 104.402 106.174 175.845L108.506 176.233Z" fill="#6C63FF"/>
<path d="M84.9284 63.2597L83.8132 65.3432L110.867 79.8045L111.983 77.721L84.9284 63.2597Z" fill="#6C63FF"/>
<path d="M139.421 70.5037L112.37 84.9732L113.485 87.0565L140.536 72.587L139.421 70.5037Z" fill="#6C63FF"/>
<path d="M241.225 117.759C230.248 111.6 218.779 106.36 206.937 102.093C141.455 78.4139 76.5233 87.5399 51.1077 121.428C70.8868 79.9126 141.463 66.8586 212.684 92.612C220.973 95.6068 229.085 99.0701 236.981 102.985C238.702 107.817 240.119 112.751 241.225 117.759Z" fill="#E6E6E6"/>
<path d="M152.788 50.9531L157.251 47.3861C153.784 47.0038 152.359 48.8934 151.776 50.389C149.068 49.265 146.119 50.738 146.119 50.738L155.048 53.9775C154.598 52.7751 153.814 51.726 152.788 50.9531Z" fill="#3F3D56"/>
<path d="M146.565 185.697C146.232 185.745 145.892 185.72 145.569 185.621C145.246 185.523 144.949 185.355 144.698 185.129C144.446 184.903 144.248 184.624 144.115 184.312C143.982 183.999 143.919 183.662 143.93 183.323L136.28 180.363L139.744 177.869L146.478 181.062C147.043 181.118 147.567 181.381 147.952 181.801C148.338 182.221 148.556 182.769 148.567 183.34C148.578 183.912 148.38 184.467 148.011 184.902C147.642 185.336 147.128 185.619 146.565 185.697Z" fill="#FFB7B7"/>
<path d="M142.194 183.574L143.388 179.332L143.33 179.292L132.141 171.64L122.469 161.871L116.835 164.137L117.205 165.932L117.229 165.954L130.089 177.549L130.1 177.555L142.194 183.574Z" fill="#E6E7E8"/>
<path d="M130.732 193.262L113.416 190.819L114.94 180.122H127.688L130.732 193.262Z" fill="#FFB6B6"/>
<path d="M101.31 245.639L104.862 246.47L109.736 233.073L104.494 231.847L101.31 245.639Z" fill="#FFB6B6"/>
<path d="M98.0048 251.396L100.552 251.992L101.566 249.677L102.171 252.371L108.927 253.951C109.251 254.027 109.59 253.997 109.896 253.865C110.201 253.732 110.457 253.505 110.625 253.217C110.793 252.928 110.865 252.593 110.831 252.26C110.797 251.927 110.657 251.614 110.434 251.366L105.904 246.353L106.469 243.905L100.716 242.919L98.0048 251.396Z" fill="#2F2E41"/>
<path d="M123.227 247.632H126.873L128.609 233.472H123.227V247.632Z" fill="#FFB6B6"/>
<path d="M121.302 253.993H123.917L124.384 251.507L125.579 253.993H132.515C132.848 253.993 133.172 253.886 133.439 253.687C133.707 253.489 133.905 253.21 134.004 252.89C134.103 252.57 134.098 252.227 133.989 251.911C133.881 251.595 133.675 251.321 133.401 251.131L127.863 247.28V244.767L122.037 245.117L121.302 253.993Z" fill="#2F2E41"/>
<path d="M113.197 189.004L130.131 187.648C135.128 199.399 131.951 218.159 128.111 239.277L122.664 239.986L122.242 206.051L108.588 237.62L102.911 237.328L113.197 189.004Z" fill="#2F2E41"/>
<path d="M123.054 158.059V152.292C123.055 151.277 122.857 150.271 122.471 149.333C122.086 148.395 121.52 147.543 120.807 146.824C120.094 146.106 119.248 145.537 118.316 145.148C117.385 144.76 116.386 144.56 115.378 144.56C114.369 144.56 113.371 144.76 112.439 145.148C111.507 145.537 110.661 146.106 109.948 146.824C109.235 147.543 108.67 148.395 108.284 149.333C107.898 150.271 107.7 151.277 107.701 152.292C106.348 155.13 107.194 156.48 107.701 158.059C107.701 158.334 107.81 158.598 108.003 158.792C108.196 158.987 108.458 159.096 108.732 159.097H122.023C122.296 159.097 122.558 158.987 122.752 158.793C122.945 158.598 123.054 158.334 123.054 158.059Z" fill="#2F2E41"/>
<path d="M117.272 159.01C120.381 159.01 122.9 156.473 122.9 153.344C122.9 150.214 120.381 147.678 117.272 147.678C114.164 147.678 111.644 150.214 111.644 153.344C111.644 156.473 114.164 159.01 117.272 159.01Z" fill="#FFB7B7"/>
<path d="M124.87 152.753C124.869 151.132 124.228 149.578 123.09 148.432C121.951 147.286 120.408 146.641 118.798 146.64H117.652C116.042 146.641 114.498 147.286 113.36 148.432C112.221 149.578 111.581 151.132 111.579 152.753V152.868C112.437 153.459 113.252 153.545 114.001 152.868L114.827 150.54L114.992 152.868H116.243L116.661 151.694L116.744 152.868C118.435 154.318 121.631 153.623 124.87 152.868L124.87 152.753Z" fill="#2F2E41"/>
<path d="M113.99 183.249L128.32 182.7L129.122 173.262C129.739 171.534 129.749 170.05 129.151 168.853C128.637 167.869 127.773 167.117 126.731 166.747L123.595 162.935C123.192 162.445 122.686 162.051 122.113 161.782C121.54 161.513 120.914 161.376 120.282 161.38L112.134 161.436C111.938 161.317 110.747 160.707 108.397 161.732C105.849 162.844 106.441 166.707 106.447 166.745L106.453 166.782L106.481 166.807L111.901 171.402L113.99 183.249Z" fill="#E6E7E8"/>
<path d="M152.008 196.947C151.997 202.446 149.944 207.741 146.251 211.792C142.559 215.843 137.495 218.358 132.055 218.841C126.614 219.324 121.191 217.741 116.852 214.402C112.512 211.064 109.57 206.212 108.603 200.801C107.637 195.39 108.716 189.81 111.629 185.159C114.542 180.508 119.077 177.122 124.344 175.667C129.611 174.213 135.228 174.794 140.091 177.296C144.953 179.799 148.71 184.043 150.623 189.193C150.671 189.322 150.717 189.451 150.762 189.582V189.583C150.964 190.157 151.142 190.742 151.296 191.337C151.77 193.169 152.009 195.054 152.008 196.947Z" fill="#3F3D56"/>
<path d="M127.576 181.989C126.586 181.451 125.487 181.147 124.363 181.1C123.239 181.054 122.119 181.267 121.089 181.722C120.182 182.12 119.227 182.832 118.925 184.12C120.148 183.393 121.732 184.541 122.047 186.384L121.974 186.405C121.807 187.681 122.179 189.07 122.898 189.862C122.951 189.505 123.083 189.164 123.283 188.865C123.484 188.565 123.748 188.315 124.057 188.131C124.585 187.781 125.169 187.527 125.572 186.927C126.05 186.215 126.172 185.174 126.362 184.224C126.551 183.275 126.911 182.254 127.576 181.989Z" fill="#FF6584"/>
<path d="M120.726 192.851C120.387 193.363 119.935 193.685 119.528 194.085C119.06 194.514 118.752 195.093 118.657 195.724C118.606 196.17 118.685 196.623 118.674 197.074C118.663 197.525 118.514 198.032 118.21 198.145C117.729 198.319 117.362 197.42 116.867 197.358C116.475 197.308 116.121 197.93 116.235 198.47C116.349 199.009 116.883 199.248 117.19 198.896C117.468 199.365 117.272 200.216 116.855 200.36C116.811 200.656 116.767 200.95 116.724 201.246C115.67 200.503 114.604 199.748 113.707 198.661C112.71 197.461 112.091 195.989 111.931 194.434C111.815 193.183 111.987 191.753 111.417 190.791C110.961 190.022 110.177 189.852 109.473 189.9C109.344 189.908 109.215 189.923 109.086 189.939C109.502 188.683 110.03 187.466 110.663 186.306C110.807 186.244 110.94 186.16 111.058 186.058C111.714 185.498 112.005 184.363 112.538 183.579C112.572 183.528 112.607 183.479 112.644 183.431C113.188 182.715 113.918 182.347 114.622 182.005C116.182 181.242 117.787 180.47 119.434 180.576L118.966 180.622C118.419 182.164 117.871 183.706 117.324 185.248C117.241 185.484 117.157 185.721 117.072 185.958C116.761 186.835 116.44 187.769 116.488 188.751C116.516 189.332 116.717 189.953 117.099 190.152C117.455 190.337 117.844 190.11 118.188 189.886C118.333 189.793 118.477 189.699 118.623 189.604C119.145 189.265 119.724 188.918 120.276 189.145C120.781 189.352 121.154 190.043 121.225 190.788C121.29 191.512 121.115 192.238 120.726 192.851Z" fill="#FF6584"/>
<path d="M123.833 203.379C122.308 202.433 120.782 201.487 119.256 200.542L119.282 200.474C118.333 200.838 117.939 202.536 118.096 203.924C118.253 205.312 118.784 206.553 119.053 207.906C119.415 209.757 119.279 211.672 118.657 213.452C120.664 211.186 122.439 208.723 123.957 206.1C124.169 205.769 124.331 205.409 124.437 205.03C124.549 204.626 124.509 204.195 124.325 203.819C124.2 203.633 124.031 203.482 123.833 203.379Z" fill="#FF6584"/>
<path d="M117.812 186.173C117.632 186.56 117.605 187.001 117.734 187.408C117.885 187.736 118.158 187.991 118.494 188.117L119.337 188.537C119.618 188.677 119.92 188.819 120.206 188.703C120.551 188.565 120.79 188.02 120.728 187.515C120.662 186.977 120.325 186.607 120.014 186.292C119.578 185.852 119.143 185.411 118.707 184.97L118.461 185.273C118.196 185.534 117.976 185.838 117.812 186.173Z" fill="#FF6584"/>
<path d="M147.488 191.921C147.868 192.011 148.247 192.101 148.626 192.191C148.56 193.48 147.925 194.674 147.074 195.106C146.719 195.286 146.324 195.352 146.03 195.689C145.764 195.994 145.63 196.469 145.506 196.924C145.29 197.717 145.073 198.51 144.857 199.304C144.624 200.158 144.326 201.108 143.721 201.416C143.203 201.681 142.609 201.357 142.21 200.814C141.811 200.27 141.568 199.54 141.332 198.828C141.347 199.604 140.988 200.365 140.48 200.635C139.971 200.905 139.352 200.661 139.012 200.059C138.767 199.626 138.666 199.056 138.426 198.618C138.186 198.179 137.684 197.928 137.422 198.339C137.249 198.613 137.271 199.031 137.186 199.379C137.142 199.609 137.029 199.821 136.861 199.983C136.693 200.146 136.479 200.252 136.248 200.286C136.036 200.282 135.828 200.233 135.635 200.145C135.442 200.056 135.269 199.929 135.126 199.77C134.377 198.999 133.889 198.009 133.733 196.941C133.627 196.429 133.64 195.9 133.772 195.394C133.923 194.915 134.286 194.546 134.647 194.637C134.884 194.132 134.416 193.462 133.994 193.521C133.57 193.58 133.239 194.037 132.891 194.388C132.545 194.739 132.06 194.994 131.712 194.645C131.72 194.773 131.677 194.898 131.593 194.994C131.509 195.09 131.39 195.148 131.264 195.156C131.251 195.156 131.239 195.157 131.226 195.157C130.994 195.09 130.779 194.975 130.594 194.819C129.795 194.318 128.78 194.65 128.213 195.599C128.567 194.079 129.087 192.335 130.178 191.978C130.623 191.831 131.109 191.952 131.529 191.698C132.275 191.248 132.425 189.55 131.781 188.849C131.863 189.512 131.848 190.285 131.5 190.739C131.153 191.192 130.423 190.896 130.467 190.226C130.458 190.32 130.418 190.409 130.355 190.479C130.292 190.55 130.209 190.598 130.117 190.618C130.025 190.638 129.929 190.628 129.843 190.589C129.757 190.55 129.685 190.486 129.638 190.403C129.407 190.049 129.426 189.469 129.59 189.045C129.759 188.661 130.002 188.315 130.304 188.025C130.885 187.398 131.474 186.764 132.147 186.37C132.821 185.976 133.6 185.843 134.275 186.234C134.631 186.441 134.944 186.786 135.308 186.968C135.393 187.022 135.488 187.058 135.587 187.074C135.686 187.09 135.788 187.087 135.885 187.064C135.983 187.041 136.076 186.999 136.157 186.94C136.239 186.881 136.308 186.806 136.361 186.72C136.365 186.713 136.369 186.707 136.373 186.7C136.644 186.222 136.516 185.513 136.617 184.915C136.797 183.86 137.845 183.366 138.426 184.063C137.992 183.951 137.543 184.468 137.489 185.095C137.434 185.722 137.748 186.355 138.169 186.545C138.876 186.86 139.569 186.067 140.104 185.333C140.661 184.564 141.22 183.796 141.78 183.028C141.869 182.898 141.969 182.775 142.079 182.661C142.255 182.489 142.488 182.391 142.733 182.386C142.978 182.381 143.215 182.469 143.397 182.634C143.962 183.098 144.228 184.051 144.692 184.706C145.364 185.658 146.371 185.889 147.309 186.074C148.007 186.211 148.706 186.348 149.406 186.487C149.872 187.36 150.278 188.264 150.623 189.193C149.34 189.782 148.252 190.728 147.488 191.921Z" fill="#F3F9D2"/>
<path d="M151.296 191.337C151.152 191.762 151.074 192.207 151.063 192.656C150.464 191.92 150.368 190.539 150.762 189.583C150.964 190.157 151.142 190.742 151.296 191.337Z" fill="#6C63FF"/>
<path d="M149.747 206.74C149.223 207.812 148.613 208.839 147.924 209.811C147.483 209.621 147.01 209.96 146.598 210.278C146.167 210.61 145.649 210.934 145.208 210.631C144.756 210.321 144.611 209.453 144.754 208.764C144.918 208.129 145.206 207.533 145.601 207.01C145.968 206.458 146.36 205.886 146.87 205.671C147.382 205.457 148.039 205.76 148.188 206.492L148.55 206.479C148.347 206.198 148.454 205.617 148.727 205.515C149.041 205.395 149.314 205.83 149.5 206.215C149.583 206.388 149.667 206.563 149.747 206.74Z" fill="#F3F9D2"/>
<path d="M135.877 201.538C135.099 201.587 134.482 200.623 134.072 199.673C133.663 198.724 133.289 197.639 132.586 197.156C132.185 196.88 131.727 196.842 131.292 196.708C131.045 196.646 130.817 196.525 130.626 196.355C130.434 196.186 130.286 195.973 130.193 195.734L129.699 195.533C129.009 195.881 128.376 196.335 127.825 196.879C127.194 197.553 126.802 198.417 126.707 199.338C126.613 200.333 126.961 201.442 127.612 201.816C128.127 202.111 128.725 201.925 129.246 202.196C129.897 202.533 130.283 203.515 130.43 204.484C130.576 205.452 130.539 206.459 130.643 207.439C130.748 208.419 131.037 209.439 131.633 209.941C132.38 210.569 133.476 210.047 133.811 208.903C133.976 208.342 133.97 207.709 134.093 207.127C134.309 206.101 134.894 205.34 135.357 204.498C135.82 203.657 136.185 202.514 135.877 201.538Z" fill="#F3F9D2"/>
<path d="M128.185 191.459C128.258 191.526 128.325 191.599 128.388 191.676C128.452 191.788 128.485 191.915 128.483 192.045C128.481 192.174 128.444 192.301 128.375 192.411C128.469 192.405 128.561 192.38 128.645 192.337C128.728 192.295 128.802 192.235 128.862 192.162C129.004 191.999 129.129 191.822 129.235 191.633C129.285 191.568 129.32 191.494 129.339 191.414C129.358 191.335 129.36 191.252 129.345 191.171C129.308 191.066 129.221 191.021 129.16 190.941C129.075 190.786 129.018 190.617 128.989 190.443C128.956 190.279 128.877 190.128 128.763 190.006C128.648 189.885 128.503 189.798 128.342 189.755L128.381 189.763C128.314 189.803 128.262 189.862 128.231 189.933C128.2 190.004 128.192 190.084 128.207 190.16C128.231 190.313 128.329 190.441 128.319 190.598C128.305 190.823 128.082 190.929 128.068 191.154C128.066 191.268 128.108 191.377 128.185 191.459Z" fill="#FF6584"/>
<path d="M126.851 187.628L126.855 187.628C126.879 187.606 126.901 187.582 126.921 187.557L126.851 187.628Z" fill="#6C63FF"/>
<path d="M127.085 188.686C127.178 188.604 127.248 188.497 127.285 188.378C127.322 188.258 127.326 188.131 127.296 188.009C127.24 187.753 127.039 187.58 126.855 187.628C126.801 187.682 126.735 187.722 126.662 187.744C126.589 187.766 126.511 187.768 126.437 187.752C126.323 187.722 126.197 187.646 126.098 187.732C126.042 187.797 126.002 187.875 125.983 187.959C125.946 188.072 125.91 188.186 125.873 188.299C125.856 188.339 125.851 188.384 125.86 188.427C125.867 188.445 125.878 188.46 125.893 188.472C125.908 188.483 125.925 188.491 125.943 188.494C126.163 188.559 126.383 188.624 126.603 188.69C126.678 188.725 126.761 188.743 126.844 188.742C126.927 188.742 127.01 188.723 127.085 188.686Z" fill="#FF6584"/>
<path d="M143.68 203.294C143.579 203.127 143.477 202.959 143.375 202.792C143.276 202.598 143.139 202.425 142.974 202.284C142.938 202.254 142.896 202.231 142.852 202.217C142.807 202.203 142.76 202.197 142.714 202.202C142.667 202.206 142.622 202.219 142.58 202.241C142.539 202.263 142.502 202.292 142.472 202.328L142.467 202.335L142.479 202.431C142.751 202.724 142.937 203.088 143.015 203.482C143.038 203.653 143.03 203.831 143.05 204.002C143.052 204.082 143.07 204.161 143.102 204.233C143.135 204.306 143.181 204.372 143.238 204.427C143.398 204.534 143.586 204.376 143.7 204.182C143.802 204.023 143.848 203.834 143.83 203.646C143.804 203.52 143.753 203.4 143.68 203.294Z" fill="#6C63FF"/>
<path d="M145.274 203.512C145.294 203.355 145.281 203.196 145.237 203.044C145.23 202.839 145.284 202.636 145.392 202.462C145.5 202.298 145.581 202.118 145.634 201.929C145.656 201.843 145.652 201.751 145.622 201.668C145.589 201.591 145.507 201.557 145.461 201.617L145.561 201.682C145.426 201.658 145.287 201.664 145.155 201.702C145.079 201.731 145.012 201.778 144.959 201.838C144.905 201.899 144.867 201.972 144.847 202.051C144.831 202.173 144.804 202.295 144.766 202.413C144.707 202.536 144.591 202.577 144.519 202.686C144.469 202.782 144.444 202.889 144.446 202.997C144.448 203.105 144.476 203.211 144.529 203.305C144.62 203.46 144.765 203.574 144.935 203.627C145.058 203.671 145.218 203.674 145.274 203.512Z" fill="#6C63FF"/>
<path d="M148.113 204.374C148.157 204.49 148.216 204.599 148.289 204.699C148.425 204.837 148.609 204.752 148.774 204.719C148.924 204.695 149.077 204.712 149.218 204.769C149.358 204.826 149.481 204.92 149.573 205.041C149.509 204.72 149.369 204.419 149.166 204.164C148.963 203.908 148.701 203.706 148.404 203.573C148.018 203.438 147.61 203.374 147.202 203.384L147.132 203.402C147.31 203.923 147.868 203.912 148.113 204.374Z" fill="#6C63FF"/>
<path d="M136.09 205.441L136.091 205.443L136.111 205.403L136.09 205.441Z" fill="#6C63FF"/>
<path d="M135.659 206.28C135.565 206.451 135.485 206.63 135.418 206.814C135.329 207.112 135.27 207.418 135.243 207.728C135.221 207.904 135.214 208.129 135.324 208.215C135.355 208.236 135.393 208.245 135.431 208.24C135.468 208.235 135.502 208.216 135.527 208.187C135.588 208.123 135.638 208.048 135.675 207.967C135.89 207.593 136.057 207.193 136.172 206.777C136.293 206.335 136.264 205.866 136.091 205.443C135.947 205.722 135.803 206.001 135.659 206.28Z" fill="#6C63FF"/>
<path d="M131.505 183.923C131.573 183.99 131.66 184.036 131.754 184.054C131.847 184.073 131.945 184.063 132.033 184.027C132.216 183.946 132.385 183.834 132.53 183.696C132.651 183.606 132.753 183.494 132.832 183.365C132.875 183.288 132.903 183.203 132.913 183.116C132.924 183.028 132.917 182.939 132.893 182.854C132.86 182.772 132.806 182.701 132.737 182.646C132.668 182.591 132.587 182.555 132.5 182.541C132.256 182.468 132.012 182.395 131.768 182.322L131.945 182.162C131.763 182.064 131.562 182.246 131.449 182.471C131.376 182.618 131.325 182.776 131.298 182.938C131.259 183.107 131.258 183.283 131.294 183.453C131.329 183.623 131.401 183.784 131.505 183.923Z" fill="#FF6584"/>
<path d="M135.813 182.467C135.881 182.543 135.976 182.59 136.078 182.599C136.18 182.607 136.282 182.576 136.362 182.512C136.431 182.46 136.488 182.394 136.53 182.318C136.572 182.242 136.597 182.158 136.605 182.071C136.622 181.878 136.527 181.663 136.392 181.647L136.423 181.466C136.162 181.418 135.84 181.409 135.7 181.728C135.653 181.85 135.639 181.983 135.658 182.113C135.678 182.242 135.731 182.364 135.813 182.467Z" fill="#FF6584"/>
<path d="M110.096 201.827C109.845 201.601 109.646 201.321 109.514 201.009C109.382 200.697 109.32 200.359 109.332 200.02C109.343 199.681 109.429 199.348 109.581 199.046C109.734 198.744 109.951 198.479 110.217 198.27L107.571 190.461L111.694 191.539L113.573 198.789C113.892 199.261 114.028 199.836 113.954 200.403C113.881 200.969 113.604 201.489 113.175 201.864C112.746 202.239 112.196 202.442 111.628 202.435C111.06 202.429 110.514 202.212 110.095 201.828L110.096 201.827Z" fill="#FFB7B7"/>
<path d="M108.913 197.089L112.914 195.294L111.57 181.673L112.821 167.937L107.48 165.036L106.349 166.472V166.505L105.749 183.873L105.752 183.886L108.913 197.089Z" fill="#E6E7E8"/>
<path d="M170.195 237.68C167.933 236.632 165.493 235.399 162.876 233.978C149.337 226.631 132.688 215.168 115.996 201.703C99.3048 188.237 84.5644 174.377 74.4907 162.676C69.5835 156.976 66.0487 152.095 63.9848 148.167C61.7996 144.009 61.3589 141.063 62.6747 139.41C65.2382 136.189 73.5867 139.09 80.1388 142.09L79.8993 142.62C70.9016 138.5 64.9447 137.489 63.1261 139.774C60.8097 142.684 65.1113 150.892 74.9278 162.295C84.9794 173.97 99.6928 187.804 116.358 201.248C133.023 214.692 149.641 226.134 163.15 233.466C176.343 240.626 185.238 243.064 187.555 240.154C189.478 237.738 186.855 231.653 180.168 223.019L180.624 222.661C185.483 228.934 190.707 237.125 188.006 240.518C186.69 242.171 183.738 242.38 179.231 241.139C176.661 240.432 173.638 239.273 170.195 237.68Z" fill="white"/>
<path d="M83.5804 198.417C77.3443 195.53 71.6453 192.631 66.6539 189.793C60.1296 186.084 55.1712 182.682 51.9165 179.681C48.4706 176.504 47.0721 173.878 47.7598 171.876C49.0993 167.976 57.9306 167.884 65.1033 168.494L65.0545 169.074C55.2047 168.237 49.2568 169.299 48.3064 172.066C47.0959 175.591 53.8869 181.867 66.9383 189.286C80.3022 196.883 98.7773 204.936 118.961 211.962C139.144 218.988 158.614 224.143 173.785 226.479C188.601 228.761 197.793 228.048 199.003 224.524C200.008 221.598 195.507 216.754 186.327 210.884L186.638 210.392C193.307 214.657 200.962 220.604 199.55 224.714C198.862 226.716 196.151 227.912 191.492 228.268C187.091 228.604 181.104 228.196 173.698 227.055C158.493 224.714 138.987 219.549 118.772 212.512C106.09 208.098 94.0772 203.276 83.5804 198.417Z" fill="#FCFCFF"/>
<path d="M93.0415 168.781C94.9032 168.781 96.4124 167.262 96.4124 165.388C96.4124 163.514 94.9032 161.995 93.0415 161.995C91.1798 161.995 89.6707 163.514 89.6707 165.388C89.6707 167.262 91.1798 168.781 93.0415 168.781Z" fill="#E6E6E6"/>
<path d="M159.484 210.201C160.624 210.201 161.548 209.271 161.548 208.123C161.548 206.976 160.624 206.046 159.484 206.046C158.344 206.046 157.421 206.976 157.421 208.123C157.421 209.271 158.344 210.201 159.484 210.201Z" fill="#FF6584"/>
<path d="M58.5639 228.435C60.4256 228.435 61.9348 226.916 61.9348 225.042C61.9348 223.168 60.4256 221.648 58.5639 221.648C56.7023 221.648 55.1931 223.168 55.1931 225.042C55.1931 226.916 56.7023 228.435 58.5639 228.435Z" fill="#E6E6E6"/>
</svg>
