<svg width="815" height="596" viewBox="0 0 815 596" fill="none" xmlns="http://www.w3.org/2000/svg">
<g clip-path="url(#clip0_47_22)">
<path d="M454.91 586.564C616.873 586.564 748.17 455.257 748.17 293.282C748.17 131.307 616.873 0 454.91 0C292.948 0 161.651 131.307 161.651 293.282C161.651 455.257 292.948 586.564 454.91 586.564Z" fill="#F2F2F2"/>
<path d="M544.541 183.204C586.66 183.204 620.804 149.057 620.804 106.935C620.804 64.8127 586.66 30.6659 544.541 30.6659C502.422 30.6659 468.277 64.8127 468.277 106.935C468.277 149.057 502.422 183.204 544.541 183.204Z" fill="#FF6584"/>
<path d="M224.83 56.9923L226.915 100.455C235.556 111.981 244.878 125.171 254.078 139.546L255.392 73.239L256.117 73.7022C245.474 66.0991 234.656 60.282 224.105 56.5894L224.83 56.9923Z" fill="#228B22"/>
<path d="M225.395 98.4357L223.376 56.3346C211.527 52.2931 200.029 50.9524 189.52 52.8268C188.973 52.9243 188.436 53.0365 187.9 53.1504C190.57 56.0154 206.131 72.9357 225.395 98.4357Z" fill="#228B22"/>
<path d="M321.073 150.288L321.772 150.956C318.9 145.554 315.856 140.302 312.639 135.2L293.043 212.312L292.712 212.02C294.128 215.403 295.476 218.763 296.754 222.099L321.073 150.288Z" fill="#228B22"/>
<path d="M291.22 106.449L291.941 107.026C281.581 94.7498 269.803 83.7437 256.854 74.238L255.515 141.808C264.076 155.321 271.742 168.63 278.511 181.737L291.22 106.449Z" fill="#228B22"/>
<path d="M149.069 127.544C150.17 138.933 152.418 150.182 155.78 161.119L272.637 173.173C266.537 161.923 260.239 151.368 254.126 141.748L149.366 128.463L149.069 127.544Z" fill="#228B22"/>
<path d="M160.032 173.731L159.717 172.814L277.987 183.328C276.558 180.533 275.114 177.775 273.653 175.054L156.365 162.955L156.056 162.037C157.239 165.892 158.564 169.79 160.032 173.731Z" fill="#228B22"/>
<path d="M311.308 133.592L312.019 134.219C306.155 124.996 299.676 116.18 292.625 107.829L279.745 184.136C284.209 192.901 288.252 201.543 291.875 210.062L311.308 133.592Z" fill="#228B22"/>
<path d="M308.806 261.059C313.507 281.4 315.288 300.634 314.112 318.546C320.726 304.453 345.878 246.069 336.476 191.657L308.806 261.059Z" fill="#228B22"/>
<path d="M181.728 214.856C187.986 223.286 194.802 231.288 202.13 238.806L201.844 237.787L307.049 259.432C304.312 248.073 300.896 236.889 296.82 225.94L181.728 214.856Z" fill="#228B22"/>
<path d="M224.487 99.1457C203.638 71.5617 187.187 54.1275 186.95 53.8779L187.221 53.2968C171.4 56.8889 160.229 67.6543 154.083 83.2363L224.487 99.1457Z" fill="#228B22"/>
<path d="M297.727 224.688C298.115 225.725 298.511 226.765 298.886 227.798C302.499 237.697 305.57 247.786 308.087 258.019L335.494 189.275L336.163 189.946C334.428 180.381 331.488 171.073 327.413 162.247C325.797 158.786 324.104 155.377 322.336 152.021L297.727 224.688Z" fill="#228B22"/>
<path d="M252.902 139.831C243.796 125.626 234.579 112.594 226.037 101.204L154.017 84.9289L153.773 84.0199C149.277 95.861 147.633 110.408 148.995 126.655L252.902 139.831Z" fill="#228B22"/>
<path d="M307.475 261.238L203.04 239.751C246.968 284.848 308.425 319.434 312.347 321.62C314.177 301.751 312.102 281.342 307.475 261.238Z" fill="#228B22"/>
<path d="M296.08 224.088L296.103 224.019C291.082 210.78 285.351 197.82 278.936 185.197L160.375 174.658C162.388 179.989 164.663 185.376 167.2 190.821C170.895 198.579 175.29 205.983 180.33 212.941L296.08 224.088Z" fill="#228B22"/>
<path d="M446.895 203.387L420.782 238.191C420.086 252.58 418.854 268.685 416.772 285.625L460.072 235.394L460.335 236.214C456.987 223.569 452.365 212.188 446.594 202.614L446.895 203.387Z" fill="#228B22"/>
<path d="M420.899 235.667L446.195 201.953C439.646 191.282 431.646 182.916 422.356 177.656C421.873 177.382 421.387 177.126 420.902 176.872C421.131 180.782 422.325 203.739 420.899 235.667Z" fill="#228B22"/>
<path d="M461.519 336.632L461.632 337.592C462.865 331.6 463.87 325.614 464.646 319.632L400.374 366.524L400.305 366.087C399.239 369.596 398.134 373.043 396.99 376.428L461.519 336.632Z" fill="#228B22"/>
<path d="M466.486 283.826L466.673 284.731C466.523 268.667 464.472 252.678 460.561 237.096L416.435 288.284C414.412 304.153 411.827 319.293 408.682 333.705L466.486 283.826Z" fill="#228B22"/>
<path d="M343.549 209.4C337.133 218.874 331.691 228.972 327.305 239.54L409.619 323.363C412.096 310.807 413.977 298.66 415.404 287.352L343.191 210.297L343.549 209.4Z" fill="#228B22"/>
<path d="M322.536 251.966L322.878 251.059L407.263 334.596C407.946 331.532 408.592 328.487 409.202 325.459L326.584 241.327L326.932 240.423C325.384 244.146 323.919 247.994 322.536 251.966Z" fill="#228B22"/>
<path d="M464.646 317.545L464.794 318.481C466.16 307.637 466.792 296.714 466.688 285.785L408.102 336.34C405.95 345.938 403.552 355.173 400.909 364.045L464.646 317.545Z" fill="#228B22"/>
<path d="M381.426 414.123C372.073 432.788 361.178 448.737 348.849 461.783C362.931 455.148 419.538 426.224 446.999 378.32L381.426 414.123Z" fill="#228B22"/>
<path d="M313.018 297.479C312.461 307.963 312.608 318.474 313.456 328.939L313.887 327.972L381.11 411.749C386.246 401.254 390.748 390.462 394.592 379.428L313.018 297.479Z" fill="#228B22"/>
<path d="M419.747 235.635C421.281 201.091 419.73 177.17 419.707 176.826L420.286 176.552C405.81 169.226 390.34 170.392 375.669 178.473L419.747 235.635Z" fill="#228B22"/>
<path d="M396.089 379.043C395.726 380.09 395.368 381.143 394.998 382.178C391.467 392.106 387.399 401.836 382.811 411.322L447.762 375.858L447.849 376.802C452.613 368.328 456.285 359.284 458.776 349.887C459.738 346.19 460.608 342.486 461.387 338.773L396.089 379.043Z" fill="#228B22"/>
<path d="M415.684 285.094C417.73 268.345 418.942 252.43 419.628 238.208L374.538 179.734L374.93 178.879C363.916 185.131 353.372 195.286 344.059 208.668L415.684 285.094Z" fill="#228B22"/>
<path d="M380.286 413.411L313.555 330.247C318.627 393 343.903 458.839 345.53 463.025C359.611 448.889 371.028 431.846 380.286 413.411Z" fill="#228B22"/>
<path d="M395.203 377.53L395.265 377.492C399.841 364.092 403.692 350.456 406.802 336.642L322.209 252.898C320.36 258.288 318.676 263.889 317.157 269.701C315.056 278.032 313.719 286.538 313.163 295.113L395.203 377.53Z" fill="#228B22"/>
<path d="M186.521 249.854L201.937 290.544C213.718 298.834 226.66 308.497 239.853 319.324L220.608 255.858L221.441 256.074C208.97 252.133 196.883 249.945 185.708 249.695L186.521 249.854Z" fill="#228B22"/>
<path d="M199.868 289.093L184.936 249.678C172.418 249.497 161.069 251.776 151.654 256.808C151.164 257.069 150.687 257.342 150.212 257.616C153.638 259.516 173.666 270.797 199.868 289.093Z" fill="#228B22"/>
<path d="M306.886 308.831L307.758 309.249C303.357 305 298.839 300.946 294.203 297.088L299.4 376.482L298.994 376.307C301.387 379.086 303.707 381.865 305.953 384.643L306.886 308.831Z" fill="#228B22"/>
<path d="M264.946 276.366L265.811 276.692C252.163 268.22 237.561 261.393 222.308 256.356L241.918 321.031C254.237 331.236 265.641 341.524 276.129 351.896L264.946 276.366Z" fill="#228B22"/>
<path d="M136.276 340.371C140.843 350.862 146.458 360.864 153.036 370.226L267.896 345.567C258.617 336.754 249.366 328.662 240.578 321.403L136.842 341.153L136.276 340.371Z" fill="#228B22"/>
<path d="M160.978 380.907L160.395 380.132L276.122 353.571C273.9 351.354 271.674 349.178 269.443 347.042L154.159 371.792L153.582 371.014C155.898 374.315 158.363 377.612 160.978 380.907Z" fill="#228B22"/>
<path d="M292.439 295.971L293.309 296.348C284.882 289.389 275.995 283.007 266.709 277.245L278.044 353.796C284.998 360.752 291.515 367.721 297.593 374.703L292.439 295.971Z" fill="#228B22"/>
<path d="M329.458 417.969C340.215 435.861 347.853 453.602 352.271 471.001C354.205 455.554 360.081 392.254 334.322 343.412L329.458 417.969Z" fill="#228B22"/>
<path d="M194.322 413.311C202.879 419.394 211.834 424.897 221.127 429.782L220.54 428.901L327.283 416.965C321.169 407.009 314.464 397.428 307.203 388.275L194.322 413.311Z" fill="#228B22"/>
<path d="M199.224 290.049C170.87 270.261 149.837 258.766 149.534 258.602L149.613 257.965C135.676 266.272 128.38 279.963 127.35 296.682L199.224 290.049Z" fill="#228B22"/>
<path d="M307.679 386.803C308.369 387.67 309.067 388.537 309.742 389.404C316.238 397.701 322.277 406.346 327.833 415.3L332.651 341.45L333.496 341.882C328.889 333.321 323.216 325.378 316.613 318.244C314.006 315.452 311.343 312.733 308.624 310.088L307.679 386.803Z" fill="#228B22"/>
<path d="M238.822 319.959C225.771 309.264 212.978 299.72 201.334 291.528L127.811 298.312L127.298 297.523C126.682 310.174 129.614 324.517 135.931 339.547L238.822 319.959Z" fill="#228B22"/>
<path d="M328.246 418.551L222.285 430.399C277.999 459.708 347.136 473.603 351.543 474.469C347.142 455.008 338.86 436.24 328.246 418.551Z" fill="#228B22"/>
<path d="M305.927 386.743L305.928 386.67C297.061 375.631 287.605 365.078 277.603 355.056L161.59 381.682C165.152 386.129 168.981 390.55 173.077 394.944C178.988 401.179 185.457 406.862 192.401 411.922L305.927 386.743Z" fill="#228B22"/>
<path d="M815 498.501C815 533.676 634.071 596 410.884 596C187.697 596 6.76782 533.676 6.76782 498.501C6.76782 463.327 187.697 468.623 410.884 468.623C634.071 468.623 815 463.327 815 498.501Z" fill="#3F3D56"/>
<path opacity="0.1" d="M815 498.501C815 533.676 634.071 596 410.884 596C187.697 596 6.76782 533.676 6.76782 498.501C6.76782 463.327 187.697 468.623 410.884 468.623C634.071 468.623 815 463.327 815 498.501Z" fill="black"/>
<path d="M410.884 562.19C634.071 562.19 815 533.676 815 498.501C815 463.327 634.071 434.813 410.884 434.813C187.697 434.813 6.76782 463.327 6.76782 498.501C6.76782 533.676 187.697 562.19 410.884 562.19Z" fill="#3F3D56"/>
<path opacity="0.1" d="M480.946 431.933C480.946 470.254 427.535 458.401 362.138 458.401C296.742 458.401 244.124 470.254 244.124 431.933C244.124 393.612 297.528 385.277 362.925 385.277C428.321 385.277 480.946 393.612 480.946 431.933Z" fill="black"/>
<path d="M480.946 422.498C480.946 460.819 427.535 448.966 362.138 448.966C296.742 448.966 244.124 460.819 244.124 422.498C244.124 384.177 297.528 375.842 362.925 375.842C428.321 375.842 480.946 384.177 480.946 422.498Z" fill="#3F3D56"/>
<path d="M270.568 317.053C272.006 316.029 273.594 315.233 275.275 314.693C285.932 310.727 297.098 308.296 308.439 307.473C318.3 306.774 328.988 307.604 336.69 313.802C337.888 314.681 338.868 315.824 339.556 317.141C340.525 319.232 340.231 321.663 339.917 323.946C339.847 324.832 339.624 325.699 339.257 326.508C338.221 328.482 335.669 329.173 333.453 328.937C331.236 328.7 329.157 327.762 326.97 327.327C325.617 327.091 324.249 326.952 322.876 326.91L309.165 326.168C300.639 325.706 292 325.252 283.636 326.973C281.062 327.436 278.574 328.293 276.261 329.515C274.351 330.588 273.064 332.127 271.292 330.146C268.178 326.665 266.454 320.268 270.568 317.053Z" fill="#2F2E41"/>
<path d="M291.815 323.117C291.815 323.117 310.257 314.849 317.252 324.389C324.248 333.929 313.437 330.113 313.437 330.113L301.354 333.929L287.999 331.385L291.815 323.117Z" fill="#F2F2F2"/>
<path d="M292.769 317.075C292.769 317.075 295.312 329.159 293.405 332.339C291.497 335.519 304.216 339.971 304.216 339.971L316.298 334.883C316.298 334.883 313.119 315.167 316.298 311.351L292.769 317.075Z" fill="#FFB9B9"/>
<path opacity="0.1" d="M292.769 317.075C292.769 317.075 295.312 329.159 293.405 332.339C291.497 335.519 304.216 339.971 304.216 339.971L316.298 334.883C316.298 334.883 313.119 315.167 316.298 311.351L292.769 317.075Z" fill="black"/>
<path d="M280.852 462.375C282.562 465.921 283.968 469.606 285.055 473.389C285.072 473.514 285.116 473.634 285.184 473.741C285.251 473.848 285.34 473.939 285.445 474.009C285.55 474.079 285.669 474.126 285.794 474.146C285.918 474.167 286.046 474.162 286.168 474.13L297.479 474.117C298.875 474.116 300.748 473.667 300.734 472.271C300.724 471.29 299.721 470.679 298.975 470.042C296.904 468.275 296.365 465.361 295.507 462.778C293.841 457.801 290.628 453.486 286.338 450.462C285.758 450.008 285.091 449.678 284.378 449.493C283.661 449.389 282.931 449.429 282.229 449.61C280.243 450.01 272.828 451.381 274.229 454.27C274.832 455.513 277.067 456.808 278.005 457.97C279.097 459.341 280.051 460.816 280.852 462.375Z" fill="#575A89"/>
<path d="M320.187 449.255C319.789 450.093 319.345 450.909 318.858 451.7C317.219 454.403 315.285 456.924 313.759 459.692C312.73 461.383 312.095 463.284 311.9 465.254C311.813 466.239 311.964 467.231 312.34 468.145C312.715 469.06 313.305 469.871 314.059 470.511C315.701 471.757 317.953 471.815 319.993 471.524C322.034 471.234 324.063 470.649 326.119 470.803C325.426 466.881 328.733 463.429 329.56 459.533C329.793 458.439 329.827 457.304 330.139 456.23C330.474 455.247 330.902 454.299 331.419 453.398C333.066 450.191 334.23 446.757 334.873 443.209C334.951 442.779 324.818 442.708 323.868 442.914C320.902 443.555 321.335 446.795 320.187 449.255Z" fill="#575A89"/>
<path d="M242.087 387.638C239.194 392.165 239.861 398.164 241.892 403.138C243.924 408.111 247.158 412.508 249.371 417.404C250.782 420.525 251.771 423.834 253.36 426.868C255.327 430.625 258.2 433.937 259.52 437.968C260.362 440.537 260.555 443.353 261.918 445.688C262.742 446.935 263.682 448.102 264.727 449.172C267.663 452.537 269.868 456.475 271.2 460.737C272.446 457.025 276.177 454.591 280.009 453.788C283.841 452.986 287.812 453.531 291.689 454.079C289.526 450.728 287.343 447.335 286.053 443.562C284.807 439.912 284.439 436.029 283.599 432.265C281.877 424.546 278.198 417.426 274.556 410.406L293.276 408.921C296.332 408.614 299.403 408.5 302.473 408.579C307.305 408.807 312.039 409.992 316.845 410.539C321.651 411.087 326.736 410.943 331.019 408.695C322.829 420.447 318.563 434.488 318.832 448.811C320.663 447.392 322.787 446.401 325.05 445.91C327.313 445.419 329.658 445.44 331.911 445.972C334.165 446.504 336.272 447.533 338.076 448.984C339.881 450.435 341.338 452.272 342.342 454.359C349.678 444.333 348.806 430.375 354.619 419.396C355.814 417.138 357.279 415.035 358.569 412.83C361.007 408.402 363.094 403.79 364.811 399.035C366.437 394.876 368.075 390.248 366.516 386.063C365.868 384.475 364.925 383.025 363.737 381.789C360.383 378.091 355.714 375.355 350.723 375.241C343.061 375.067 336.732 380.746 330.011 384.429C321.987 388.694 312.912 390.576 303.854 389.854C294.622 389.2 285.805 386.178 277.009 383.517C272.609 382.123 268.136 380.969 263.611 380.06C259.84 379.353 256.247 380.136 252.53 381.101C248.483 382.151 244.416 383.992 242.087 387.638Z" fill="#2F2E41"/>
<path d="M322.022 304.991C322.018 310.05 320.006 314.901 316.429 318.478C312.853 322.056 308.002 324.067 302.944 324.071C301.807 324.073 300.672 323.971 299.554 323.766C295.984 323.121 292.671 321.471 290.005 319.01C287.339 316.549 285.43 313.379 284.502 309.871C283.574 306.364 283.665 302.664 284.765 299.206C285.865 295.749 287.928 292.676 290.712 290.35C293.496 288.023 296.886 286.539 300.484 286.071C304.082 285.603 307.739 286.171 311.025 287.708C314.312 289.245 317.092 291.687 319.04 294.748C320.988 297.81 322.022 301.363 322.022 304.991Z" fill="#FFB9B9"/>
<path d="M291.815 323.117C291.815 323.117 295.312 324.707 296.584 325.979C297.856 327.251 301.672 334.247 308.031 329.795C314.391 325.343 315.027 322.799 316.934 322.799C318.842 322.799 321.386 326.615 321.386 326.615L338.874 379.085C334.161 384.405 328.698 389.012 322.658 392.758C312.483 399.118 300.4 402.298 294.676 399.754C288.953 397.21 278.142 395.302 276.234 390.214C274.326 385.126 271.146 369.863 271.146 369.863L280.05 331.067L291.815 323.117Z" fill="#F2F2F2"/>
<path d="M289.359 376.183C290.746 373.188 290.947 369.798 291.065 366.5C291.252 363.233 291.165 359.956 290.806 356.704C290.242 352.45 288.857 348.351 287.982 344.15C287.215 340.465 286.843 336.709 286.87 332.946C286.883 331.228 287.007 329.42 287.943 327.98C288.596 326.976 289.617 326.197 290.025 325.071C290.825 322.862 288.848 320.549 286.682 319.64C284.045 318.65 281.159 318.535 278.45 319.309C275.763 320.086 273.167 321.148 270.707 322.477C268.846 323.271 267.135 324.377 265.647 325.748C263.673 327.791 262.805 330.636 262.104 333.389C261.543 335.593 261.045 337.891 261.471 340.124C262.165 343.751 265.121 346.479 266.697 349.818C268.527 353.695 268.404 358.214 267.676 362.439C266.948 366.665 265.656 370.796 265.257 375.065C264.859 379.334 265.47 383.924 268.145 387.275C269.235 388.64 272.191 391.877 274.187 391.511C275.754 391.223 278.026 387.772 279.289 386.678C282.937 383.519 287.265 380.708 289.359 376.183Z" fill="#2F2E41"/>
<path d="M322.678 321.043C322.734 324.59 321.17 327.962 319.332 330.996C317.493 334.029 315.333 336.899 313.978 340.177C312.295 344.281 311.951 348.813 312.996 353.124C313.385 354.592 313.853 356.038 314.399 357.456L317.883 367.014C318.352 368.517 319.033 369.945 319.904 371.257C320.692 372.261 321.616 373.15 322.65 373.898C325.297 376.036 328.342 377.625 331.609 378.573C334.899 379.514 338.411 379.313 341.572 378.004C341.908 365.047 343.99 352.194 347.761 339.793C348.457 337.504 349.218 335.094 348.681 332.762C348.079 330.15 345.981 328.189 343.987 326.398C337.889 320.921 331.182 315.168 323.019 314.43C318.295 314.003 322.638 318.479 322.678 321.043Z" fill="#2F2E41"/>
<path d="M280.945 394.986C281.428 395.933 281.729 396.965 282.208 397.914C282.913 399.188 283.786 400.361 284.803 401.404C289.055 406.119 294.252 410.816 300.595 411.1C301.225 411.159 301.86 411.079 302.456 410.866C302.993 410.592 303.454 410.19 303.799 409.696C304.144 409.202 304.363 408.632 304.437 408.034C304.887 405.571 303.8 403.113 302.711 400.858C300.352 395.972 297.698 390.961 293.281 387.81C291.075 386.298 288.555 385.306 285.911 384.908C283.267 384.511 280.567 384.717 278.015 385.513C275.714 386.222 271.899 387.459 274.945 389.559C277.256 391.151 279.605 392.364 280.945 394.986Z" fill="#FFB9B9"/>
<path d="M308.363 332.773C307.701 330.985 306.686 329.348 305.378 327.96C304.059 326.845 302.498 326.054 300.819 325.65C298.644 325.029 296.394 324.706 294.131 324.692C291.438 324.675 288.315 325.398 287.172 327.836C286.263 329.773 286.967 332.066 287.882 333.999C288.273 335.001 288.923 335.88 289.767 336.546C290.929 337.331 292.431 337.306 293.808 337.569C295.942 338.111 297.964 339.028 299.779 340.275L304.497 343.127L312.599 348.025C312.386 347.896 312.462 342.339 312.213 341.429C311.411 338.495 309.606 335.551 308.363 332.773Z" fill="#FFB9B9"/>
<path d="M284.76 471.949C282.864 474.526 283.244 478.209 281.565 480.932C280.109 483.292 277.365 484.529 275.545 486.621C274.964 487.316 274.446 488.061 273.997 488.847C272.308 491.677 270.935 495.303 272.598 498.148C273.937 500.436 276.749 501.331 279.329 501.94C282.59 502.711 285.978 503.327 289.276 502.739C292.574 502.15 295.798 500.13 296.974 496.993C297.205 496.204 297.48 495.428 297.797 494.67C299.585 491.15 305.192 491.112 307.022 487.614C308.302 485.166 307.125 482.207 305.948 479.707L302.355 472.073C301.163 469.539 296.329 470.996 293.809 470.389C290.522 469.597 287.124 468.725 284.76 471.949Z" fill="#2F2E41"/>
<path d="M312.553 465.391C311.082 466.549 309.957 468.09 309.302 469.845C307.524 473.948 306.913 478.446 306.32 482.879C305.982 484.642 305.947 486.449 306.217 488.224C306.983 491.844 310.263 494.51 313.794 495.617C317.324 496.723 321.111 496.553 324.806 496.372C325.998 496.402 327.182 496.162 328.268 495.669C330.125 494.645 330.85 492.237 330.532 490.14C330.214 488.043 329.068 486.178 327.947 484.377C326.826 482.577 325.679 480.712 325.358 478.616C324.818 475.089 326.342 469.913 324.176 466.722C322.005 463.525 315.451 463.36 312.553 465.391Z" fill="#2F2E41"/>
<path d="M321.542 295.048C321.203 293.907 320.455 292.931 319.442 292.306C319.494 291.084 319.344 289.862 318.998 288.688C317.843 285.272 315.106 285.468 312.524 283.958C311.403 283.303 311.472 282.723 310.889 281.647C310.125 280.236 308.98 279.068 307.585 278.276C305.928 277.22 304.179 276.133 302.219 275.999C298.1 275.718 294.942 279.593 291.005 280.836C289.27 281.384 287.406 281.407 285.661 281.925C283.917 282.443 282.176 283.681 281.916 285.482C281.796 286.313 282.008 287.166 281.886 287.998C281.644 289.65 280.195 290.807 279.225 292.166C277.079 295.171 277.324 299.417 279.04 302.687C279.402 303.364 279.815 304.011 280.277 304.623C280.421 306.169 280.864 307.672 281.584 309.047C283.3 312.317 286.253 314.76 289.337 316.79C289.085 315.706 288.931 314.601 288.88 313.488C288.836 313.118 288.884 312.742 289.02 312.394C289.364 311.676 290.271 311.485 290.963 311.092C292.397 310.277 292.959 308.474 293 306.826C293.042 305.178 292.692 303.527 292.865 301.887C292.872 301.51 292.958 301.138 293.117 300.796C293.276 300.454 293.505 300.15 293.789 299.902C294.318 299.6 294.922 299.456 295.531 299.486C298.468 299.367 301.536 299.313 304.127 297.924C304.962 297.369 305.86 296.914 306.802 296.57C309.004 295.996 311.254 297.539 312.523 299.428C313.792 301.317 314.424 303.564 315.595 305.515C316.766 307.466 318.788 309.206 321.052 308.975C321.179 308.975 321.305 308.949 321.422 308.897C321.538 308.845 321.642 308.769 321.728 308.675C321.825 308.499 321.869 308.299 321.852 308.099L321.978 299.446C322.084 297.966 321.936 296.479 321.542 295.048Z" fill="#2F2E41"/>
<path d="M261.165 340.309C259.345 342.994 257.246 345.577 256.245 348.663C255.657 350.477 255.475 352.395 255.049 354.253C253.631 360.445 249.534 365.944 249.122 372.283C248.978 373.691 249.185 375.113 249.724 376.422C250.899 378.979 253.712 380.326 256.395 381.174C259.078 382.021 261.959 382.632 264.101 384.457C265.179 385.491 266.157 386.624 267.021 387.842C270.515 392.188 275.215 395.405 280.531 397.087C280.111 394.193 279.914 390.705 282.227 388.916C283.48 387.948 285.153 387.776 286.73 387.639L294.181 386.995C289.212 382.176 283.735 377.909 277.847 374.27C275.786 372.997 273.544 371.654 272.603 369.423C272.117 367.985 271.915 366.466 272.009 364.951C271.958 359.409 271.489 353.878 270.605 348.407C269.992 344.608 269.18 340.842 268.251 337.108C267.99 336.06 266.449 331.357 264.551 332.457C264.105 332.717 263.686 335.7 263.425 336.319C262.804 337.719 262.047 339.056 261.165 340.309Z" fill="#2F2E41"/>
<path d="M346.986 330.16L350.029 336.489C351.495 339.091 352.162 342.067 351.947 345.046L352.128 364.031C352.268 366.568 352.058 369.111 351.504 371.591C351.314 372.408 350.957 373.176 350.454 373.848C349.938 374.427 349.33 374.917 348.655 375.298C342.896 378.896 335.428 380.942 329.344 377.926C327.95 377.183 326.625 376.318 325.384 375.341C322.96 373.546 320.499 371.715 318.685 369.303C316.786 366.779 315.698 363.758 314.421 360.869C312.128 355.688 309.166 350.829 305.611 346.418C305.021 345.835 304.638 345.076 304.52 344.255C304.482 342.591 306.456 341.772 307.995 341.139C310.625 340.057 313.105 337.97 313.545 335.161C319.137 342.495 325.308 350.243 334.132 352.923C334.27 353.011 334.43 353.061 334.594 353.066C334.758 353.071 334.921 353.031 335.064 352.952C335.208 352.872 335.327 352.755 335.409 352.613C335.492 352.471 335.534 352.309 335.532 352.145C336.033 350.049 336.21 347.891 336.577 345.767C337.249 341.9 338.543 338.167 340.409 334.715C341.454 332.779 344.838 325.692 346.986 330.16Z" fill="#2F2E41"/>
<path opacity="0.1" d="M271.476 348.462C271.56 352.954 270.606 357.406 268.688 361.469C268.189 362.367 267.821 363.332 267.596 364.334C267.262 366.473 268.479 368.542 269.87 370.201C272.613 373.461 276.171 375.937 280.182 377.376" fill="black"/>
<path opacity="0.1" d="M337.552 344.675C337.104 345.881 337.511 347.214 337.857 348.453C338.858 352.048 339.325 355.77 339.244 359.5C339.259 359.565 339.257 359.633 339.238 359.697C339.22 359.762 339.186 359.82 339.139 359.868C339.093 359.916 339.035 359.951 338.971 359.971C338.907 359.991 338.839 359.995 338.774 359.982C337.306 360.072 335.626 360.081 334.63 358.999" fill="black"/>
<path opacity="0.1" d="M586.997 524.449C641.708 524.449 686.06 514.944 686.06 503.219C686.06 491.494 641.708 481.99 586.997 481.99C532.285 481.99 487.933 491.494 487.933 503.219C487.933 514.944 532.285 524.449 586.997 524.449Z" fill="black"/>
<path d="M636.529 313.726L629.453 320.802L636.529 327.879L643.605 313.726H636.529Z" fill="#A0616A"/>
<path d="M638.122 252.364C640.107 253.177 641.052 255.399 641.8 257.41L650.979 282.077L652.766 286.878C653.642 289.233 654.519 291.589 655.26 293.989C655.728 295.508 656.142 297.042 656.501 298.591C656.873 299.917 657.016 301.297 656.924 302.671C656.676 304.183 656.124 305.629 655.302 306.922C652.108 312.484 647.561 317.149 642.081 320.483C641.765 318.443 640.943 316.515 639.689 314.876C638.436 313.236 636.791 311.937 634.906 311.098L639.652 308.487C640.656 308.016 641.56 307.354 642.312 306.539C642.772 305.903 643.099 305.181 643.273 304.416C643.448 303.651 643.466 302.858 643.328 302.086C643.043 300.545 642.57 299.044 641.919 297.619C640.326 293.644 638.945 289.588 637.779 285.467C637.09 283.03 636.456 280.525 635.09 278.393C633.851 276.458 632.056 274.911 630.93 272.908C629.213 269.856 629.257 266.097 630.015 262.679C630.655 259.792 631.728 257.014 632.631 254.204C633.34 251.996 635.996 251.494 638.122 252.364Z" fill="#D0CDE1"/>
<path d="M594.359 186.461C590.709 187.694 587.403 190.577 586.655 194.357C586.309 196.109 586.521 197.93 586.23 199.692C585.553 203.778 582.346 206.899 579.388 209.797C576.43 212.696 573.375 216.064 573.159 220.2C572.922 224.73 576.207 228.973 575.639 233.472C574.978 238.7 569.457 242.088 568.092 247.177C567.181 250.575 568.298 254.236 570.135 257.237C573.636 262.954 579.621 266.836 585.994 268.917C592.368 270.998 599.155 271.436 605.859 271.506C614.022 271.592 622.885 270.891 629.018 265.503C632.521 262.398 634.721 258.083 635.177 253.424C635.76 247.183 633.155 240.735 634.952 234.73C636.082 230.95 638.918 227.499 638.495 223.577C638.081 219.742 634.732 217.024 632.434 213.926C630.289 211.033 628.988 207.618 627.712 204.25L623.347 192.727C622.489 190.462 621.547 188.08 619.634 186.593C616.054 183.81 610.298 184.357 606.112 184.931C602.229 185.463 598.094 185.2 594.359 186.461Z" fill="#2F2E41"/>
<path d="M597.735 224.435C597.735 224.435 598.163 237.253 596.881 238.535C595.599 239.817 602.008 248.362 602.008 248.362L613.543 247.935L619.525 243.235L614.398 236.399C614.398 236.399 612.262 225.29 613.971 222.726C615.68 220.162 597.735 224.435 597.735 224.435Z" fill="#A0616A"/>
<path opacity="0.1" d="M597.735 224.435C597.735 224.435 598.163 237.253 596.881 238.535C595.599 239.817 602.008 248.362 602.008 248.362L613.543 247.935L619.525 243.235L614.398 236.399C614.398 236.399 612.262 225.29 613.971 222.726C615.68 220.162 597.735 224.435 597.735 224.435Z" fill="black"/>
<path d="M571.033 323.349L578.296 339.586L583.85 332.749L572.742 318.222L571.033 323.349Z" fill="#A0616A"/>
<path d="M551.593 485.927L548.603 502.591L543.476 509.855L546.466 511.564L551.593 510.709L557.575 508.573L560.138 498.746L564.838 485.927H551.593Z" fill="#A0616A"/>
<path d="M606.281 475.672L604.571 499.6L608.844 503.018L615.68 497.036V479.518L606.281 475.672Z" fill="#A0616A"/>
<path d="M604.785 229.349C613.28 229.349 620.166 222.462 620.166 213.967C620.166 205.472 613.28 198.585 604.785 198.585C596.29 198.585 589.404 205.472 589.404 213.967C589.404 222.462 596.29 229.349 604.785 229.349Z" fill="#A0616A"/>
<path d="M616.653 234.656C616.193 234.434 615.689 234.314 615.178 234.304C614.666 234.294 614.159 234.395 613.69 234.599C612.757 235.012 611.851 235.484 610.978 236.012C608.733 237.18 606.188 237.643 603.676 237.34C603.381 237.318 603.092 237.244 602.823 237.121C602.537 236.943 602.274 236.731 602.041 236.489C601.13 235.749 599.967 235.392 598.798 235.493C597.629 235.594 596.544 236.145 595.773 237.03C595.322 237.593 595.012 238.265 594.519 238.792C593.243 240.157 591.136 240.213 589.266 240.209C585.391 240.101 581.517 240.456 577.725 241.267C573.917 242.089 570.41 243.948 567.591 246.638C566.822 247.361 566.209 248.235 565.791 249.205C565.275 250.534 565.343 252.027 564.88 253.376C564.364 254.878 563.221 256.11 562.758 257.629C562.409 258.773 562.458 260.047 561.875 261.091C564.372 263.252 566.487 266.135 568.984 268.296C570.637 269.727 572.368 271.275 572.989 273.371C573.269 274.664 573.393 275.985 573.359 277.307C573.668 283.627 577.095 289.361 580.928 294.395C581.979 295.888 583.237 297.225 584.664 298.364C586.601 299.683 588.801 300.567 591.112 300.954C595.477 301.846 599.969 301.842 604.424 301.798C609.028 301.752 613.713 301.654 618.09 300.223C620.317 299.602 622.321 298.357 623.866 296.636C625.666 294.425 626.368 291.227 628.824 289.779C629.419 289.506 629.982 289.17 630.504 288.775C631.004 288.233 631.358 287.572 631.533 286.855C632.392 284.171 632.865 281.379 632.939 278.562C632.875 276.872 632.99 275.179 633.281 273.513C633.705 272.044 634.324 270.639 635.121 269.335L640.21 260.104C640.624 259.354 640.516 258.25 640.554 257.394C640.516 256.16 640.137 254.96 639.459 253.928C636.158 248.094 630.973 243.554 624.753 241.054C624.263 240.888 623.796 240.659 623.364 240.374C622.855 239.946 622.425 239.432 622.093 238.857C620.742 236.821 619.092 234.529 616.653 234.656Z" fill="#D0CDE1"/>
<path d="M553.225 284.927C552.221 287.367 551.484 289.909 551.027 292.508C550.536 296.098 551.115 299.753 552.691 303.016C555.434 308.662 560.833 312.491 564.644 317.478C568.185 322.112 570.294 327.666 573.36 332.627C572.825 331.364 573.475 329.902 574.35 328.847C575.225 327.791 576.343 326.915 576.985 325.703C577.421 324.764 577.696 323.759 577.797 322.728C578.254 319.652 578.502 316.31 576.933 313.624C575.753 311.603 573.714 310.26 572.1 308.565C570.485 306.84 569.299 304.76 568.635 302.492C567.972 300.225 567.851 297.833 568.282 295.51C568.592 293.911 569.164 292.376 569.592 290.804C570.122 288.691 570.523 286.549 570.793 284.388L572.717 271.172C573.229 267.657 573.661 263.767 571.671 260.826C571.283 260.21 570.746 259.702 570.109 259.348C569.583 259.107 569.022 258.949 568.448 258.88C566.354 258.538 563.517 257.621 562.495 259.865C561.261 262.573 560.402 265.525 559.369 268.317L553.225 284.927Z" fill="#D0CDE1"/>
<path d="M626.551 292.158C626.551 292.158 601.153 297.072 595.172 297.072H584.491C584.491 297.072 580.646 303.908 580.646 310.745C580.646 317.581 555.438 413.291 555.438 413.291C555.438 413.291 531.513 491.909 558.002 492.336C584.491 492.764 601.153 494.046 601.58 485.073C602.008 476.1 604.571 360.309 604.571 360.309L608.559 419.848C609.631 434.588 608.486 449.405 605.163 463.805C603.251 471.878 603.548 480.729 613.116 482.509C631.487 485.927 654.559 482.936 654.559 476.527C654.559 470.118 642.596 327.836 642.596 327.836C642.596 327.836 636.614 306.899 633.196 305.19C629.779 303.481 626.551 292.158 626.551 292.158Z" fill="#2F2E41"/>
<path d="M546.893 509L556.293 505.582L562.701 489.346L569.537 488.491C569.537 488.491 565.692 496.609 563.556 497.891C561.42 499.173 558.002 509.855 558.002 509.855C558.002 509.855 559.711 514.128 551.593 515.837C543.475 517.546 537.494 518.828 537.494 518.828C537.494 518.828 536.639 517.118 540.485 512.846C544.33 508.573 548.82 501.38 548.82 501.38L546.893 509Z" fill="#2F2E41"/>
<path d="M604.571 489.346L602.862 502.164C602.862 502.164 607.562 509 608.844 509C610.125 509 616.961 503.018 616.961 503.018C616.961 503.018 616.534 496.609 616.961 494.9C617.389 493.191 618.243 485.073 616.961 484.645C615.68 484.218 615.68 494.168 615.68 494.168L610.125 500.027L604.77 496.816L604.571 489.346Z" fill="#2F2E41"/>
<path d="M606.067 213.967C615.269 213.967 622.729 209.95 622.729 204.994C622.729 200.038 615.269 196.021 606.067 196.021C596.864 196.021 589.404 200.038 589.404 204.994C589.404 209.95 596.864 213.967 606.067 213.967Z" fill="#2F2E41"/>
<path d="M0 381.078C0 431.412 31.5748 472.142 70.5952 472.142L0 381.078Z" fill="#3F3D56"/>
<path d="M70.5952 472.142C70.5952 421.242 105.831 380.055 149.375 380.055L70.5952 472.142Z" fill="#228B22"/>
<path d="M25.5779 385.641C25.5779 433.453 45.7125 472.142 70.5951 472.142L25.5779 385.641Z" fill="#228B22"/>
<path d="M70.5952 472.142C70.5952 407.103 111.322 354.475 161.653 354.475L70.5952 472.142Z" fill="#3F3D56"/>
<path d="M55.7437 472.784C55.7437 472.784 65.7552 472.476 68.7724 470.327C71.7897 468.179 84.1727 465.613 84.9213 469.059C85.6698 472.505 99.9668 486.198 88.6638 486.289C77.3608 486.38 62.4006 484.528 59.3892 482.694C56.3778 480.859 55.7437 472.784 55.7437 472.784Z" fill="#A8A8A8"/>
<path opacity="0.2" d="M88.8655 485.09C77.5625 485.181 62.6023 483.329 59.5909 481.494C57.2975 480.097 56.3837 475.084 56.0779 472.771C55.8661 472.78 55.7437 472.784 55.7437 472.784C55.7437 472.784 56.3778 480.859 59.3892 482.694C62.4006 484.528 77.3608 486.38 88.6638 486.289C91.9265 486.263 93.0535 485.102 92.9916 483.382C92.5383 484.421 91.294 485.07 88.8655 485.09Z" fill="black"/>
</g>
<defs>
<clipPath id="clip0_47_22">
<rect width="815" height="596" fill="white"/>
</clipPath>
</defs>
</svg>
